<svg width="142" height="142" viewBox="0 0 142 142" fill="none" xmlns="http://www.w3.org/2000/svg">
<g clip-path="url(#clip0_541_2860)">
<path d="M106.845 50.747C106.845 50.4658 106.835 50.1814 106.815 49.8972L109.5 47.5982L109.369 47.0788C109.189 46.3671 108.956 45.6635 108.677 44.9868C108.396 44.3113 108.063 43.6492 107.687 43.0188L107.413 42.5588L103.894 42.8314C103.519 42.3985 103.113 41.9917 102.68 41.6158L102.953 38.0905L102.493 37.8161C101.863 37.4398 101.201 37.107 100.525 36.8264C99.8487 36.5469 99.1451 36.314 98.4334 36.1343L97.9141 36.0032L95.6191 38.6836C95.3283 38.6627 95.0391 38.6524 94.7501 38.6524L92.1584 41.2439L94.7501 43.8357C98.561 43.8357 101.661 46.9361 101.661 50.7469C101.661 54.5578 98.561 57.6582 94.7501 57.6582L92.1584 60.2499L94.7501 62.8415C95.0329 62.8415 95.3157 62.8316 95.5998 62.8117L97.8989 65.497L98.4182 65.3658C99.13 65.1861 99.8335 64.9533 100.51 64.6734C101.186 64.3932 101.848 64.0603 102.478 63.6841L102.938 63.4096L102.666 59.8909C103.098 59.5158 103.505 59.1096 103.881 58.6771L107.406 58.9503L107.681 58.4903C108.057 57.8599 108.39 57.1978 108.671 56.5215C108.95 55.8456 109.183 55.142 109.363 54.4303L109.494 53.911L106.813 51.616C106.834 51.3252 106.845 51.0344 106.845 50.747Z" fill="#F58220"/>
<path d="M82.6553 50.747C82.6553 50.4658 82.6653 50.1814 82.6853 49.8972L80 47.5982L80.1311 47.0788C80.3108 46.3671 80.5437 45.6635 80.8235 44.9868C81.1038 44.3113 81.4366 43.6492 81.8128 43.0188L82.0873 42.5588L85.606 42.8314C85.9812 42.3985 86.3874 41.9917 86.8198 41.6158L86.5466 38.0905L87.0066 37.8161C87.6371 37.4398 88.2992 37.107 88.9755 36.8264C89.6514 36.5469 90.3549 36.314 91.0666 36.1343L91.586 36.0032L93.8809 38.6836C94.1718 38.6627 94.461 38.6524 94.75 38.6524V43.8357C90.9391 43.8357 87.8387 46.9361 87.8387 50.7469C87.8387 54.5578 90.9391 57.6582 94.75 57.6582V62.8415C94.4671 62.8415 94.1844 62.8316 93.9002 62.8117L91.6012 65.497L91.0818 65.3658C90.3701 65.1861 89.6665 64.9533 88.9898 64.6734C88.3143 64.3932 87.6521 64.0603 87.0218 63.6841L86.5618 63.4096L86.8345 59.8909C86.4016 59.5158 85.9947 59.1096 85.6188 58.6771L82.0936 58.9503L81.8191 58.4903C81.4428 57.8599 81.11 57.1978 80.8294 56.5215C80.5499 55.8456 80.3171 55.142 80.1374 54.4303L80.0062 53.911L82.6866 51.616C82.6658 51.3252 82.6553 51.0344 82.6553 50.747Z" fill="#F58220"/>
<path d="M94.75 42.1079L93.0222 43.8357L94.75 45.5635C97.6082 45.5635 99.9335 47.8888 99.9335 50.747C99.9335 53.6051 97.6082 55.9304 94.75 55.9304L93.0222 57.6583L94.75 59.3861C99.5137 59.3861 103.389 55.5106 103.389 50.747C103.389 45.9833 99.5136 42.1079 94.75 42.1079Z" fill="#C56600"/>
<path d="M89.5666 50.747C89.5666 47.8888 91.8919 45.5635 94.75 45.5635V42.1079C89.9864 42.1079 86.1109 45.9833 86.1109 50.747C86.1109 55.5106 89.9864 59.3861 94.75 59.3861V55.9304C91.8919 55.9304 89.5666 53.6051 89.5666 50.747Z" fill="#C56600"/>
</g>
<g clip-path="url(#clip1_541_2860)">
<path d="M96 54.3538V62.713H37V54.3538C37 51.175 39.5773 48.5977 42.7561 48.5977H90.2439C93.4227 48.5977 96 51.175 96 54.3538Z" fill="#F1F1F1"/>
<path d="M63.0047 53.562C64.2088 53.566 65.1813 54.5452 65.1773 55.7492C65.1734 56.9533 64.1942 57.9263 62.9901 57.9224C61.7861 57.9184 60.8136 56.9392 60.8175 55.7352C60.822 54.5311 61.8007 53.5586 63.0047 53.562Z" fill="#F58220"/>
<path d="M96 62.5154V94.46C96 97.6394 93.4227 100.216 90.2439 100.216H42.7561C39.5773 100.216 37 97.6394 37 94.46V62.5154H96Z" fill="#F58220"/>
<path d="M53.2104 53.5318C54.4144 53.5357 55.3875 54.5149 55.3835 55.719C55.3796 56.923 54.4004 57.896 53.1963 57.8921C51.9923 57.8882 51.0192 56.909 51.0232 55.7049C51.0249 55.1265 51.2565 54.5722 51.6662 54.1647C52.0766 53.7572 52.6325 53.5295 53.2104 53.5318Z" fill="#F58220"/>
<path d="M43.4166 53.5003C44.6212 53.5036 45.5948 54.4828 45.5909 55.6875C45.5875 56.8921 44.6083 57.8657 43.4037 57.8617C42.199 57.8584 41.2254 56.8792 41.2294 55.6745C41.2305 55.0961 41.4621 54.5419 41.8724 54.1338C42.2828 53.7262 42.8382 53.498 43.4166 53.5003Z" fill="#F58220"/>
<path d="M61.5507 86.5824C61.3566 86.5829 61.1684 86.5135 61.0205 86.3874L55.7252 81.8778C55.5425 81.722 55.4375 81.4941 55.4375 81.2543C55.4375 81.0146 55.5425 80.7866 55.7252 80.6314L61.0205 76.1217C61.3648 75.8285 61.8814 75.87 62.1741 76.214C62.4674 76.5583 62.4263 77.0749 62.0819 77.3681L57.5188 81.2543L62.0823 85.141C62.3436 85.3635 62.4381 85.7252 62.3198 86.0472C62.2011 86.3692 61.8946 86.5829 61.5512 86.5824H61.5507Z" fill="white"/>
<path d="M72.0069 86.5824C71.6635 86.5829 71.357 86.3692 71.2383 86.0472C71.12 85.7252 71.2145 85.3635 71.4758 85.141L76.0389 81.2543L71.4753 77.3681C71.1309 77.0749 71.0898 76.5583 71.383 76.214C71.6758 75.87 72.1924 75.8285 72.5367 76.1217L77.832 80.6314C78.0146 80.7866 78.1197 81.0146 78.1197 81.2543C78.1197 81.4941 78.0146 81.722 77.832 81.8778L72.5367 86.3874C72.3887 86.5135 72.201 86.5824 72.0069 86.5824Z" fill="white"/>
<path d="M64.9045 89.9655C64.6574 89.9655 64.424 89.854 64.2683 89.6627C64.113 89.4709 64.0518 89.2197 64.1025 88.9781L67.4032 73.3061C67.4964 72.8635 67.9303 72.5808 68.3728 72.674C68.8149 72.7672 69.0981 73.2011 69.0049 73.6436L65.7042 89.3156C65.6247 89.6937 65.2909 89.965 64.9045 89.9655Z" fill="white"/>
<path fill-rule="evenodd" clip-rule="evenodd" d="M94.4481 98.392C93.4991 98.6606 92.3416 98.8466 90.9297 98.9297L68.8047 98.4688L44.5998 97.5469C41.4211 97.5469 39.7656 94.8375 39.7656 91.4946V62.5156H37V94.4603C37 97.6396 39.5773 100.216 42.7561 100.216H90.2439C91.9027 100.216 93.3976 99.5147 94.4481 98.392Z" fill="#C56600"/>
</g>
<path d="M129.353 32.6304C129.096 32.6304 128.802 32.4837 128.655 32.2635C128.067 31.3463 127.405 30.4657 126.743 29.5852C126.486 29.2183 126.56 28.7046 126.927 28.4111C127.295 28.1543 127.809 28.2276 128.103 28.5945C128.765 29.5118 129.427 30.429 130.052 31.3463C130.309 31.7132 130.199 32.2635 129.831 32.4837C129.684 32.5937 129.5 32.6304 129.353 32.6304Z" fill="#F58220"/>
<path d="M70.9809 141.507C69.7312 141.507 68.4447 141.471 67.1949 141.397C66.717 141.361 66.3862 140.995 66.423 140.519C66.4597 140.043 66.8641 139.713 67.3052 139.75C69.4739 139.86 71.6794 139.86 73.8113 139.786C74.2892 139.786 74.6567 140.116 74.6935 140.592C74.7303 141.068 74.3627 141.434 73.8848 141.471C72.9291 141.471 71.9734 141.507 70.9809 141.507ZM84.4711 140.189C84.0668 140.189 83.7359 139.896 83.6624 139.53C83.5889 139.091 83.883 138.651 84.3241 138.542C86.3825 138.139 88.4409 137.626 90.4626 137.04L90.6464 137.004C91.0875 136.857 91.5654 137.114 91.6756 137.553C91.8227 137.992 91.5654 138.468 91.1243 138.578L90.9405 138.615C88.8453 139.201 86.7501 139.713 84.6549 140.153C84.5814 140.189 84.5079 140.189 84.4711 140.189ZM100.828 134.88C100.498 134.88 100.203 134.697 100.056 134.404C99.8727 134.002 100.056 133.489 100.461 133.306C102.409 132.391 104.357 131.365 106.195 130.304C106.599 130.084 107.114 130.194 107.334 130.597C107.555 130.999 107.445 131.512 107.04 131.732C105.129 132.83 103.144 133.892 101.159 134.807C101.086 134.844 100.975 134.88 100.828 134.88ZM115.421 125.727C115.164 125.727 114.943 125.617 114.76 125.434C114.466 125.068 114.539 124.556 114.87 124.263C116.524 122.908 118.178 121.443 119.685 119.942C120.016 119.613 120.531 119.613 120.861 119.942C121.192 120.272 121.192 120.784 120.861 121.114C119.281 122.652 117.627 124.153 115.899 125.544C115.789 125.691 115.605 125.727 115.421 125.727ZM127.331 113.316C127.147 113.316 127 113.279 126.816 113.169C126.449 112.913 126.375 112.364 126.632 111.997C127.919 110.277 129.132 108.483 130.271 106.615C130.529 106.213 131.007 106.103 131.411 106.323C131.815 106.579 131.926 107.055 131.705 107.458C130.565 109.325 129.316 111.192 127.992 112.949C127.845 113.206 127.588 113.316 127.331 113.316ZM135.859 98.4142C135.748 98.4142 135.638 98.3776 135.528 98.341C135.087 98.1579 134.903 97.682 135.087 97.2426C135.932 95.2655 136.667 93.2152 137.292 91.1649C137.439 90.7256 137.88 90.4693 138.321 90.6158C138.762 90.7622 139.02 91.2016 138.873 91.6409C138.211 93.7278 137.439 95.8514 136.594 97.8651C136.484 98.1946 136.153 98.4142 135.859 98.4142ZM140.49 81.8654C140.453 81.8654 140.417 81.8654 140.38 81.8654C139.939 81.7921 139.608 81.3894 139.681 80.9134C140.012 78.7899 140.233 76.6298 140.343 74.4696C140.38 74.0303 140.784 73.6642 141.225 73.7008C141.703 73.7374 142.034 74.1035 141.997 74.5795C141.887 76.7762 141.666 79.0096 141.336 81.1697C141.225 81.5724 140.894 81.8654 140.49 81.8654ZM140.894 64.6941C140.453 64.6941 140.123 64.3646 140.049 63.9618C139.828 61.8383 139.498 59.6782 139.093 57.5546C139.02 57.1153 139.314 56.6759 139.755 56.5661C140.196 56.4929 140.637 56.7858 140.747 57.2252C141.189 59.3853 141.483 61.582 141.703 63.7788C141.74 64.2181 141.409 64.6575 140.968 64.6941C140.931 64.6941 140.931 64.6941 140.894 64.6941ZM137.108 47.9622C136.778 47.9622 136.447 47.7425 136.336 47.413C135.601 45.3993 134.793 43.3856 133.874 41.4085C133.69 41.0058 133.874 40.4932 134.278 40.3101C134.682 40.1271 135.197 40.3101 135.381 40.7129C136.3 42.6899 137.182 44.7769 137.917 46.8638C138.064 47.3031 137.844 47.7791 137.402 47.9256C137.292 47.9256 137.182 47.9622 137.108 47.9622Z" fill="#F58220"/>
<path d="M56.6446 140.011C56.5711 140.011 56.5343 140.011 56.4608 140.011C55.3581 139.791 54.2553 139.534 53.1894 139.24C52.7483 139.13 52.491 138.653 52.6012 138.213C52.7115 137.773 53.1894 137.516 53.6305 137.626C54.6964 137.92 55.7624 138.14 56.8284 138.396C57.2695 138.507 57.5635 138.947 57.49 139.387C57.3797 139.754 57.0122 140.011 56.6446 140.011Z" fill="#F58220"/>
<path d="M11.3213 108.346C11.0272 108.346 10.7699 108.199 10.6229 107.942C10.0348 106.988 9.44665 105.998 8.93204 105.044C8.71149 104.64 8.85852 104.127 9.26286 103.906C9.66719 103.686 10.1818 103.833 10.4024 104.237C10.917 105.191 11.5051 106.145 12.0565 107.062C12.3138 107.465 12.1667 107.979 11.7992 108.199C11.6154 108.309 11.4683 108.346 11.3213 108.346Z" fill="#F58220"/>
<path d="M5.21962 95.9248C4.8888 95.9248 4.55798 95.7051 4.44771 95.3756C3.85958 93.8013 3.30821 92.1537 2.83036 90.5061C2.68333 90.0668 2.57305 89.5908 2.46278 89.1515C2.35251 88.7121 2.60981 88.2361 3.05091 88.1263C3.492 88.0165 3.96985 88.2728 4.08013 88.7121C4.1904 89.1515 4.33743 89.5908 4.44771 90.0302C4.92556 91.6411 5.44017 93.2155 6.0283 94.7898C6.17533 95.2291 5.95478 95.7051 5.55044 95.8516C5.44017 95.9248 5.3299 95.9248 5.21962 95.9248ZM1.28653 79.5224C0.88219 79.5224 0.51461 79.1928 0.441094 78.7901C0.183788 76.63 0.0367579 74.4332 0 72.2731C0 71.7971 0.367578 71.431 0.808673 71.431C1.24977 71.431 1.65411 71.7971 1.65411 72.2365C1.69086 74.36 1.8379 76.4835 2.0952 78.607C2.13196 79.0464 1.83789 79.4857 1.36004 79.5224C1.36004 79.5224 1.32329 79.5224 1.28653 79.5224ZM1.3968 62.6074C1.36004 62.6074 1.32329 62.6074 1.28653 62.6074C0.845432 62.5342 0.514611 62.1314 0.551369 61.6921C0.845432 59.5319 1.21301 57.3718 1.69086 55.2483C1.80113 54.8089 2.24223 54.516 2.68333 54.6258C3.12442 54.7357 3.41849 55.1751 3.30821 55.6144C2.83036 57.6647 2.46278 59.7882 2.20548 61.8751C2.16872 62.3145 1.80114 62.6074 1.3968 62.6074ZM5.5872 46.2416C5.47693 46.2416 5.36665 46.2416 5.29314 46.1684C4.85204 45.9853 4.66825 45.5093 4.81528 45.1066C5.5872 43.0929 6.50615 41.0792 7.46186 39.1388C7.68241 38.736 8.16026 38.553 8.5646 38.7727C8.96893 38.9923 9.15272 39.4683 8.93218 39.871C7.97647 41.7749 7.09428 43.7154 6.35912 45.6924C6.24885 46.0586 5.91802 46.2416 5.5872 46.2416ZM13.6004 31.3769C13.4534 31.3769 13.2696 31.3403 13.1226 31.2305C12.755 30.9742 12.6447 30.4616 12.902 30.0589C14.1518 28.3015 15.5118 26.5441 16.9086 24.8965C17.2027 24.5304 17.7173 24.4938 18.0849 24.7867C18.4525 25.0796 18.4892 25.5922 18.1952 25.9583C16.8351 27.5692 15.5118 29.2534 14.2988 31.0108C14.115 31.2305 13.8577 31.3769 13.6004 31.3769ZM24.9219 18.8188C24.7013 18.8188 24.444 18.709 24.297 18.5259C24.0029 18.1964 24.0397 17.6472 24.3705 17.3543C26.0246 15.9265 27.7522 14.5718 29.5166 13.2903C29.8842 13.034 30.3988 13.1073 30.6929 13.4734C30.9502 13.8395 30.8767 14.3521 30.5091 14.645C28.7815 15.8898 27.0906 17.2079 25.51 18.5992C25.3262 18.7456 25.1424 18.8188 24.9219 18.8188ZM38.9634 9.33619C38.6693 9.33619 38.3753 9.15312 38.2282 8.89684C38.0077 8.4941 38.1915 7.98153 38.5958 7.76186C40.544 6.77332 42.5289 5.858 44.5506 5.05252C44.9917 4.86946 45.4695 5.08913 45.6166 5.52848C45.8004 5.96783 45.5798 6.4438 45.1387 6.59025C43.1538 7.39573 41.2056 8.27443 39.331 9.22636C39.2207 9.33619 39.1104 9.33619 38.9634 9.33619ZM54.8796 3.51479C54.512 3.51479 54.1444 3.25852 54.0709 2.8924C53.9606 2.45305 54.2547 2.01369 54.6958 1.90385C56.8277 1.39128 58.9965 0.988547 61.1284 0.695647C61.5695 0.622422 62.0106 0.951921 62.0841 1.39127C62.1576 1.83062 61.8268 2.26998 61.3857 2.34321C59.2905 2.63611 57.1586 3.03883 55.1001 3.51479C55.0266 3.51479 54.9531 3.51479 54.8796 3.51479ZM78.2209 2.01369C78.1841 2.01369 78.1473 2.01369 78.1473 2.01369C76.0154 1.79401 73.8834 1.68418 71.7515 1.64756C71.2736 1.64756 70.906 1.28144 70.9428 0.80548C70.9428 0.36613 71.3104 0 71.7882 0C73.9569 0.0366125 76.1624 0.14645 78.3311 0.366125C78.7722 0.402738 79.1398 0.805475 79.0663 1.28144C78.9928 1.68418 78.6252 2.01369 78.2209 2.01369Z" fill="#F58220"/>
<path d="M91.785 4.7654C91.7115 4.7654 91.6012 4.76541 91.5277 4.72872C90.4985 4.39851 89.4325 4.10498 88.3665 3.81145C87.9254 3.70138 87.6681 3.22439 87.7784 2.7841C87.8887 2.34381 88.3665 2.08698 88.8076 2.19705C89.9103 2.49058 90.9763 2.78411 92.0423 3.11432C92.4834 3.26108 92.7407 3.70137 92.5937 4.14166C92.4834 4.54526 92.1526 4.7654 91.785 4.7654Z" fill="#F58220"/>
<defs>
<clipPath id="clip0_541_2860">
<rect width="29.5" height="29.5" fill="white" transform="translate(80 36)"/>
</clipPath>
<clipPath id="clip1_541_2860">
<rect width="59" height="59" fill="white" transform="translate(37 45)"/>
</clipPath>
</defs>
</svg>
