<svg width="142" height="142" viewBox="0 0 142 142" fill="none" xmlns="http://www.w3.org/2000/svg">
<path d="M129.353 32.6307C129.096 32.6307 128.802 32.4839 128.655 32.2638C128.066 31.3465 127.405 30.466 126.743 29.5854C126.486 29.2185 126.559 28.7048 126.927 28.4113C127.295 28.1545 127.809 28.2279 128.103 28.5948C128.765 29.512 129.427 30.4293 130.051 31.3465C130.309 31.7134 130.198 32.2638 129.831 32.4839C129.684 32.594 129.5 32.6307 129.353 32.6307Z" fill="#F58220"/>
<path d="M70.9807 141.507C69.7309 141.507 68.4444 141.471 67.1946 141.398C66.7168 141.361 66.3859 140.995 66.4227 140.519C66.4595 140.043 66.8638 139.713 67.3049 139.75C69.4736 139.86 71.6791 139.86 73.811 139.787C74.2889 139.787 74.6565 140.116 74.6932 140.592C74.73 141.068 74.3624 141.434 73.8846 141.471C72.9288 141.471 71.9731 141.507 70.9807 141.507ZM84.4708 140.189C84.0665 140.189 83.7357 139.896 83.6622 139.53C83.5886 139.091 83.8827 138.652 84.3238 138.542C86.3822 138.139 88.4407 137.626 90.4624 137.041L90.6462 137.004C91.0872 136.858 91.5651 137.114 91.6754 137.553C91.8224 137.993 91.5651 138.469 91.124 138.578L90.9402 138.615C88.845 139.201 86.7498 139.713 84.6546 140.153C84.5811 140.189 84.5076 140.189 84.4708 140.189ZM100.828 134.881C100.497 134.881 100.203 134.697 100.056 134.405C99.8724 134.002 100.056 133.489 100.461 133.306C102.409 132.391 104.357 131.366 106.195 130.304C106.599 130.084 107.114 130.194 107.334 130.597C107.555 131 107.445 131.512 107.04 131.732C105.129 132.83 103.144 133.892 101.159 134.807C101.085 134.844 100.975 134.881 100.828 134.881ZM115.421 125.727C115.164 125.727 114.943 125.618 114.759 125.434C114.465 125.068 114.539 124.556 114.87 124.263C116.524 122.908 118.178 121.444 119.685 119.943C120.016 119.613 120.53 119.613 120.861 119.943C121.192 120.272 121.192 120.785 120.861 121.114C119.281 122.652 117.626 124.153 115.899 125.544C115.789 125.691 115.605 125.727 115.421 125.727ZM127.331 113.316C127.147 113.316 127 113.279 126.816 113.169C126.448 112.913 126.375 112.364 126.632 111.998C127.919 110.277 129.132 108.483 130.271 106.616C130.528 106.213 131.006 106.103 131.411 106.323C131.815 106.579 131.925 107.055 131.705 107.458C130.565 109.325 129.315 111.192 127.992 112.95C127.845 113.206 127.588 113.316 127.331 113.316ZM135.858 98.4145C135.748 98.4145 135.638 98.3778 135.528 98.3412C135.086 98.1582 134.903 97.6822 135.086 97.2429C135.932 95.2658 136.667 93.2155 137.292 91.1652C137.439 90.7258 137.88 90.4695 138.321 90.616C138.762 90.7624 139.02 91.2018 138.873 91.6412C138.211 93.7281 137.439 95.8516 136.594 97.8653C136.483 98.1948 136.152 98.4145 135.858 98.4145ZM140.49 81.8656C140.453 81.8656 140.416 81.8656 140.38 81.8656C139.938 81.7924 139.608 81.3896 139.681 80.9137C140.012 78.7902 140.233 76.63 140.343 74.4699C140.38 74.0305 140.784 73.6644 141.225 73.701C141.703 73.7376 142.034 74.1037 141.997 74.5797C141.887 76.7764 141.666 79.0098 141.335 81.1699C141.225 81.5727 140.894 81.8656 140.49 81.8656ZM140.894 64.6943C140.453 64.6943 140.122 64.3648 140.049 63.9621C139.828 61.8385 139.497 59.6784 139.093 57.5549C139.02 57.1155 139.314 56.6762 139.755 56.5664C140.196 56.4931 140.637 56.786 140.747 57.2254C141.188 59.3855 141.482 61.5823 141.703 63.779C141.74 64.2184 141.409 64.6577 140.968 64.6943C140.931 64.6943 140.931 64.6943 140.894 64.6943ZM137.108 47.9624C136.777 47.9624 136.446 47.7427 136.336 47.4132C135.601 45.3995 134.792 43.3858 133.873 41.4088C133.69 41.006 133.873 40.4934 134.278 40.3104C134.682 40.1273 135.197 40.3104 135.381 40.7131C136.299 42.6902 137.182 44.7771 137.917 46.864C138.064 47.3034 137.843 47.7794 137.402 47.9258C137.292 47.9258 137.182 47.9624 137.108 47.9624Z" fill="#F58220"/>
<path d="M56.6445 140.011C56.571 140.011 56.5342 140.011 56.4607 140.011C55.358 139.791 54.2552 139.534 53.1893 139.241C52.7482 139.131 52.4909 138.654 52.6012 138.213C52.7114 137.773 53.1893 137.516 53.6304 137.626C54.6963 137.92 55.7623 138.14 56.8283 138.397C57.2694 138.507 57.5634 138.947 57.4899 139.387C57.3797 139.754 57.0121 140.011 56.6445 140.011Z" fill="#F58220"/>
<path d="M11.3213 108.346C11.0272 108.346 10.7699 108.199 10.6229 107.942C10.0348 106.988 9.44665 105.998 8.93204 105.044C8.71149 104.64 8.85852 104.127 9.26286 103.906C9.66719 103.686 10.1818 103.833 10.4024 104.237C10.917 105.191 11.5051 106.145 12.0565 107.062C12.3138 107.465 12.1667 107.979 11.7992 108.199C11.6154 108.309 11.4683 108.346 11.3213 108.346Z" fill="#F58220"/>
<path d="M5.21962 95.9248C4.8888 95.9248 4.55798 95.7051 4.44771 95.3756C3.85958 93.8013 3.30821 92.1537 2.83036 90.5061C2.68333 90.0668 2.57305 89.5908 2.46278 89.1515C2.35251 88.7121 2.60981 88.2361 3.05091 88.1263C3.492 88.0165 3.96985 88.2728 4.08013 88.7121C4.1904 89.1515 4.33743 89.5908 4.44771 90.0302C4.92556 91.6411 5.44017 93.2155 6.0283 94.7898C6.17533 95.2291 5.95478 95.7051 5.55044 95.8516C5.44017 95.9248 5.3299 95.9248 5.21962 95.9248ZM1.28653 79.5224C0.88219 79.5224 0.51461 79.1928 0.441094 78.7901C0.183788 76.63 0.0367579 74.4332 0 72.2731C0 71.7971 0.367578 71.431 0.808673 71.431C1.24977 71.431 1.65411 71.7971 1.65411 72.2365C1.69086 74.36 1.8379 76.4835 2.0952 78.607C2.13196 79.0464 1.83789 79.4857 1.36004 79.5224C1.36004 79.5224 1.32329 79.5224 1.28653 79.5224ZM1.3968 62.6074C1.36004 62.6074 1.32329 62.6074 1.28653 62.6074C0.845432 62.5342 0.514611 62.1314 0.551369 61.6921C0.845432 59.5319 1.21301 57.3718 1.69086 55.2483C1.80113 54.8089 2.24223 54.516 2.68333 54.6258C3.12442 54.7357 3.41849 55.1751 3.30821 55.6144C2.83036 57.6647 2.46278 59.7882 2.20548 61.8751C2.16872 62.3145 1.80114 62.6074 1.3968 62.6074ZM5.5872 46.2416C5.47693 46.2416 5.36665 46.2416 5.29314 46.1684C4.85204 45.9853 4.66825 45.5093 4.81528 45.1066C5.5872 43.0929 6.50615 41.0792 7.46186 39.1388C7.68241 38.736 8.16026 38.553 8.5646 38.7727C8.96893 38.9923 9.15272 39.4683 8.93218 39.871C7.97647 41.7749 7.09428 43.7154 6.35912 45.6924C6.24885 46.0586 5.91802 46.2416 5.5872 46.2416ZM13.6004 31.3769C13.4534 31.3769 13.2696 31.3403 13.1226 31.2305C12.755 30.9742 12.6447 30.4616 12.902 30.0589C14.1518 28.3015 15.5118 26.5441 16.9086 24.8965C17.2027 24.5304 17.7173 24.4938 18.0849 24.7867C18.4525 25.0796 18.4892 25.5922 18.1952 25.9583C16.8351 27.5692 15.5118 29.2534 14.2988 31.0108C14.115 31.2305 13.8577 31.3769 13.6004 31.3769ZM24.9219 18.8188C24.7013 18.8188 24.444 18.709 24.297 18.5259C24.0029 18.1964 24.0397 17.6472 24.3705 17.3543C26.0246 15.9265 27.7522 14.5718 29.5166 13.2903C29.8842 13.034 30.3988 13.1073 30.6929 13.4734C30.9502 13.8395 30.8767 14.3521 30.5091 14.645C28.7815 15.8898 27.0906 17.2079 25.51 18.5992C25.3262 18.7456 25.1424 18.8188 24.9219 18.8188ZM38.9634 9.33619C38.6693 9.33619 38.3753 9.15312 38.2282 8.89684C38.0077 8.4941 38.1915 7.98153 38.5958 7.76186C40.544 6.77332 42.5289 5.858 44.5506 5.05252C44.9917 4.86946 45.4695 5.08913 45.6166 5.52848C45.8004 5.96783 45.5798 6.4438 45.1387 6.59025C43.1538 7.39573 41.2056 8.27443 39.331 9.22636C39.2207 9.33619 39.1104 9.33619 38.9634 9.33619ZM54.8796 3.51479C54.512 3.51479 54.1444 3.25852 54.0709 2.8924C53.9606 2.45305 54.2547 2.01369 54.6958 1.90385C56.8277 1.39128 58.9965 0.988547 61.1284 0.695647C61.5695 0.622422 62.0106 0.951921 62.0841 1.39127C62.1576 1.83062 61.8268 2.26998 61.3857 2.34321C59.2905 2.63611 57.1586 3.03883 55.1001 3.51479C55.0266 3.51479 54.9531 3.51479 54.8796 3.51479ZM78.2209 2.01369C78.1841 2.01369 78.1473 2.01369 78.1473 2.01369C76.0154 1.79401 73.8834 1.68418 71.7515 1.64756C71.2736 1.64756 70.906 1.28144 70.9428 0.80548C70.9428 0.36613 71.3104 0 71.7882 0C73.9569 0.0366125 76.1624 0.14645 78.3311 0.366125C78.7722 0.402738 79.1398 0.805475 79.0663 1.28144C78.9928 1.68418 78.6252 2.01369 78.2209 2.01369Z" fill="#F58220"/>
<path d="M91.785 4.76565C91.7115 4.76565 91.6012 4.76566 91.5277 4.72897C90.4985 4.39875 89.4325 4.10522 88.3665 3.8117C87.9254 3.70163 87.6681 3.22463 87.7784 2.78434C87.8887 2.34405 88.3665 2.08723 88.8076 2.1973C89.9104 2.49082 90.9763 2.78435 92.0423 3.11457C92.4834 3.26133 92.7407 3.70161 92.5937 4.1419C92.4834 4.5455 92.1526 4.76565 91.785 4.76565Z" fill="#F58220"/>
<path d="M103.999 61.9675C104.031 57.5368 102.3 53.3358 99.1247 50.1388C95.8915 46.8829 91.6053 45.0898 87.0549 45.0898H74.4805C72.0756 45.0898 69.7532 45.5889 67.5784 46.5733C67.092 46.7933 66.8765 47.3658 67.0965 47.8528C67.3166 48.3392 67.8891 48.5552 68.3755 48.3347C70.2986 47.4645 72.352 47.0234 74.4805 47.0234H87.0549C91.0857 47.0234 94.8849 48.6141 97.7526 51.5014C100.561 54.3303 102.093 58.0424 102.066 61.9539C102.038 65.8729 100.496 69.5584 97.7244 72.3303C96.4716 73.5832 95.0244 74.5907 93.4226 75.3259C92.8289 75.5988 92.4875 76.2197 92.5737 76.8713L93.2746 82.1917L87.8892 77.0797C87.6123 76.8169 87.2502 76.6724 86.8685 76.6724H74.6673C70.6364 76.6724 66.8372 75.0822 63.9696 72.1944C61.1608 69.366 59.6291 65.6539 59.6567 61.7419C59.6658 60.4478 59.839 59.1834 60.1709 57.9598C60.1829 57.9246 60.1925 57.8888 60.2001 57.8521C60.4206 57.0645 60.7066 56.2946 61.0591 55.5448C61.2862 55.0619 61.0787 54.4859 60.5958 54.2588C60.1124 54.0312 59.5364 54.2387 59.3093 54.7221C59.0067 55.3656 58.7479 56.0227 58.5313 56.6919H54.7578C45.5173 56.6919 38 64.2093 38 73.4497C38 80.9917 43.0092 87.571 50.2295 89.5877L49.4475 95.5234C49.3795 96.0365 49.6428 96.5395 50.1031 96.7757C50.2793 96.8658 50.4702 96.9101 50.6605 96.9101C50.9667 96.9101 51.2703 96.7953 51.5049 96.5748L58.2116 90.208H60.1356C60.6694 90.208 61.1024 89.775 61.1024 89.2412C61.1024 88.7075 60.6694 88.2744 60.1356 88.2744H58.0318C57.6506 88.2744 57.2886 88.4189 57.0106 88.6818L51.6258 93.7937L52.1988 89.4462C52.2955 88.7039 51.8227 88.004 51.0976 87.8182C44.5244 86.15 39.9336 80.2415 39.9336 73.4502C39.9336 65.2757 46.5838 58.6255 54.7578 58.6255H58.0313C57.8339 59.6396 57.7302 60.6754 57.7232 61.7283C57.6919 66.1595 59.4231 70.36 62.5979 73.557C65.8312 76.8134 70.1173 78.6065 74.6678 78.6065H81.4207C79.2893 84.3579 73.7458 88.2744 67.5195 88.2744H64.3004C63.7661 88.2744 63.3336 88.7075 63.3336 89.2412C63.3336 89.7755 63.7661 90.208 64.3004 90.208H67.5195C74.7972 90.208 81.2511 85.4737 83.4671 78.6065H86.6888L93.3984 84.9757C93.6306 85.1943 93.9332 85.3086 94.2394 85.3086C94.4297 85.3086 94.621 85.2643 94.7973 85.1736C95.2575 84.938 95.5209 84.4344 95.4529 83.9223L94.5329 76.9403C96.2238 76.1235 97.7556 75.0338 99.0915 73.698C102.226 70.5639 103.969 66.3981 103.999 61.9675Z" fill="#F58220"/>
<path d="M61.7854 52.4067C61.9672 52.5598 62.1882 52.6348 62.4088 52.6348C62.6837 52.6348 62.9566 52.518 63.148 52.2914C63.4169 51.9732 63.7029 51.662 63.9985 51.3664C64.3217 51.0431 64.6642 50.7309 65.0156 50.4389C65.4265 50.0975 65.4829 49.4882 65.142 49.0773C64.8006 48.6664 64.1913 48.61 63.7804 48.9509C63.3826 49.2812 62.9964 49.6337 62.6309 49.9988C62.297 50.3326 61.9742 50.6846 61.6701 51.0441C61.3262 51.452 61.3775 52.0623 61.7854 52.4067Z" fill="#F58220"/>
<path d="M45.04 73.4761L49.1225 77.3642L54.5658 70.5601" stroke="#F58220" stroke-width="2.31959" stroke-linecap="round" stroke-linejoin="round"/>
<path d="M64.163 73.2817H58.9346C58.4008 73.2817 57.9678 73.7143 57.9678 74.2485C57.9678 74.7823 58.4008 75.2153 58.9346 75.2153H64.163C64.6968 75.2153 65.1298 74.7823 65.1298 74.2485C65.1298 73.7143 64.6973 73.2817 64.163 73.2817Z" fill="#F58220"/>
<path d="M93.4751 60.8799H80.3267C79.7929 60.8799 79.3599 61.3124 79.3599 61.8467C79.3599 62.3804 79.7929 62.8135 80.3267 62.8135H93.4751C94.0088 62.8135 94.4419 62.3804 94.4419 61.8467C94.4419 61.3124 94.0093 60.8799 93.4751 60.8799Z" fill="#F58220"/>
<path d="M75.205 60.5083V58.2402H70.5393H67.04V61.6423V65.0444V66.4052H75.205V60.5083Z" stroke="#F58220" stroke-width="2" stroke-linecap="round" stroke-linejoin="round"/>
</svg>
