<svg width="142" height="142" viewBox="0 0 142 142" fill="none" xmlns="http://www.w3.org/2000/svg">
<path d="M129.353 32.6304C129.096 32.6304 128.802 32.4837 128.655 32.2635C128.067 31.3463 127.405 30.4657 126.743 29.5852C126.486 29.2183 126.56 28.7046 126.927 28.4111C127.295 28.1543 127.809 28.2276 128.103 28.5945C128.765 29.5118 129.427 30.429 130.052 31.3463C130.309 31.7132 130.199 32.2635 129.831 32.4837C129.684 32.5937 129.5 32.6304 129.353 32.6304Z" fill="#F58220"/>
<path d="M70.9809 141.507C69.7312 141.507 68.4446 141.471 67.1949 141.397C66.717 141.361 66.3862 140.995 66.423 140.519C66.4597 140.043 66.864 139.713 67.3051 139.75C69.4739 139.86 71.6793 139.86 73.8113 139.786C74.2891 139.786 74.6567 140.116 74.6935 140.592C74.7302 141.068 74.3626 141.434 73.8848 141.471C72.9291 141.471 71.9734 141.507 70.9809 141.507ZM84.4711 140.189C84.0667 140.189 83.7359 139.896 83.6624 139.53C83.5889 139.091 83.883 138.651 84.324 138.542C86.3825 138.139 88.4409 137.626 90.4626 137.04L90.6464 137.004C91.0875 136.857 91.5653 137.114 91.6756 137.553C91.8227 137.992 91.5653 138.468 91.1243 138.578L90.9405 138.615C88.8453 139.201 86.7501 139.713 84.6549 140.153C84.5813 140.189 84.5078 140.189 84.4711 140.189ZM100.828 134.88C100.498 134.88 100.203 134.697 100.056 134.404C99.8726 134.002 100.056 133.489 100.461 133.306C102.409 132.391 104.357 131.365 106.195 130.304C106.599 130.084 107.114 130.194 107.334 130.597C107.555 130.999 107.445 131.512 107.04 131.732C105.129 132.83 103.144 133.892 101.159 134.807C101.086 134.844 100.975 134.88 100.828 134.88ZM115.421 125.727C115.164 125.727 114.943 125.617 114.76 125.434C114.466 125.068 114.539 124.556 114.87 124.263C116.524 122.908 118.178 121.443 119.685 119.942C120.016 119.613 120.531 119.613 120.861 119.942C121.192 120.272 121.192 120.784 120.861 121.114C119.281 122.652 117.627 124.153 115.899 125.544C115.789 125.691 115.605 125.727 115.421 125.727ZM127.331 113.316C127.147 113.316 127 113.279 126.816 113.169C126.449 112.913 126.375 112.364 126.632 111.997C127.919 110.277 129.132 108.483 130.271 106.615C130.529 106.213 131.007 106.103 131.411 106.323C131.815 106.579 131.926 107.055 131.705 107.458C130.565 109.325 129.316 111.192 127.992 112.949C127.845 113.206 127.588 113.316 127.331 113.316ZM135.859 98.4142C135.748 98.4142 135.638 98.3776 135.528 98.341C135.087 98.1579 134.903 97.682 135.087 97.2426C135.932 95.2655 136.667 93.2152 137.292 91.1649C137.439 90.7256 137.88 90.4693 138.321 90.6158C138.762 90.7622 139.02 91.2016 138.873 91.6409C138.211 93.7278 137.439 95.8514 136.594 97.8651C136.483 98.1946 136.153 98.4142 135.859 98.4142ZM140.49 81.8654C140.453 81.8654 140.417 81.8654 140.38 81.8654C139.939 81.7921 139.608 81.3894 139.681 80.9134C140.012 78.7899 140.233 76.6298 140.343 74.4696C140.38 74.0303 140.784 73.6642 141.225 73.7008C141.703 73.7374 142.034 74.1035 141.997 74.5795C141.887 76.7762 141.666 79.0096 141.336 81.1697C141.225 81.5724 140.894 81.8654 140.49 81.8654ZM140.894 64.6941C140.453 64.6941 140.123 64.3646 140.049 63.9618C139.828 61.8383 139.498 59.6782 139.093 57.5546C139.02 57.1153 139.314 56.6759 139.755 56.5661C140.196 56.4929 140.637 56.7858 140.747 57.2252C141.188 59.3853 141.483 61.582 141.703 63.7788C141.74 64.2181 141.409 64.6575 140.968 64.6941C140.931 64.6941 140.931 64.6941 140.894 64.6941ZM137.108 47.9622C136.778 47.9622 136.447 47.7425 136.336 47.413C135.601 45.3993 134.793 43.3856 133.874 41.4085C133.69 41.0058 133.874 40.4932 134.278 40.3101C134.682 40.1271 135.197 40.3101 135.381 40.7129C136.3 42.6899 137.182 44.7769 137.917 46.8638C138.064 47.3031 137.844 47.7791 137.402 47.9256C137.292 47.9256 137.182 47.9622 137.108 47.9622Z" fill="#F58220"/>
<path d="M56.6446 140.011C56.571 140.011 56.5343 140.011 56.4608 140.011C55.358 139.791 54.2553 139.534 53.1893 139.24C52.7482 139.13 52.4909 138.653 52.6012 138.213C52.7115 137.773 53.1893 137.516 53.6304 137.626C54.6964 137.92 55.7624 138.14 56.8283 138.396C57.2694 138.507 57.5635 138.947 57.49 139.387C57.3797 139.754 57.0121 140.011 56.6446 140.011Z" fill="#F58220"/>
<path d="M11.3213 108.346C11.0272 108.346 10.7699 108.199 10.6229 107.942C10.0348 106.988 9.44665 105.998 8.93204 105.044C8.71149 104.64 8.85852 104.127 9.26286 103.906C9.66719 103.686 10.1818 103.833 10.4024 104.237C10.917 105.191 11.5051 106.145 12.0565 107.062C12.3138 107.465 12.1667 107.979 11.7992 108.199C11.6154 108.309 11.4683 108.346 11.3213 108.346Z" fill="#F58220"/>
<path d="M5.21962 95.9248C4.8888 95.9248 4.55798 95.7051 4.44771 95.3756C3.85958 93.8013 3.30821 92.1537 2.83036 90.5061C2.68333 90.0668 2.57305 89.5908 2.46278 89.1515C2.35251 88.7121 2.60981 88.2361 3.05091 88.1263C3.492 88.0165 3.96985 88.2728 4.08013 88.7121C4.1904 89.1515 4.33743 89.5908 4.44771 90.0302C4.92556 91.6411 5.44017 93.2155 6.0283 94.7898C6.17533 95.2291 5.95478 95.7051 5.55044 95.8516C5.44017 95.9248 5.3299 95.9248 5.21962 95.9248ZM1.28653 79.5224C0.88219 79.5224 0.51461 79.1928 0.441094 78.7901C0.183788 76.63 0.0367579 74.4332 0 72.2731C0 71.7971 0.367578 71.431 0.808673 71.431C1.24977 71.431 1.65411 71.7971 1.65411 72.2365C1.69086 74.36 1.8379 76.4835 2.0952 78.607C2.13196 79.0464 1.83789 79.4857 1.36004 79.5224C1.36004 79.5224 1.32329 79.5224 1.28653 79.5224ZM1.3968 62.6074C1.36004 62.6074 1.32329 62.6074 1.28653 62.6074C0.845432 62.5342 0.514611 62.1314 0.551369 61.6921C0.845432 59.5319 1.21301 57.3718 1.69086 55.2483C1.80113 54.8089 2.24223 54.516 2.68333 54.6258C3.12442 54.7357 3.41849 55.1751 3.30821 55.6144C2.83036 57.6647 2.46278 59.7882 2.20548 61.8751C2.16872 62.3145 1.80114 62.6074 1.3968 62.6074ZM5.5872 46.2416C5.47693 46.2416 5.36665 46.2416 5.29314 46.1684C4.85204 45.9853 4.66825 45.5093 4.81528 45.1066C5.5872 43.0929 6.50615 41.0792 7.46186 39.1388C7.68241 38.736 8.16026 38.553 8.5646 38.7727C8.96893 38.9923 9.15272 39.4683 8.93218 39.871C7.97647 41.7749 7.09428 43.7154 6.35912 45.6924C6.24885 46.0586 5.91802 46.2416 5.5872 46.2416ZM13.6004 31.3769C13.4534 31.3769 13.2696 31.3403 13.1226 31.2305C12.755 30.9742 12.6447 30.4616 12.902 30.0589C14.1518 28.3015 15.5118 26.5441 16.9086 24.8965C17.2027 24.5304 17.7173 24.4938 18.0849 24.7867C18.4525 25.0796 18.4892 25.5922 18.1952 25.9583C16.8351 27.5692 15.5118 29.2534 14.2988 31.0108C14.115 31.2305 13.8577 31.3769 13.6004 31.3769ZM24.9219 18.8188C24.7013 18.8188 24.444 18.709 24.297 18.5259C24.0029 18.1964 24.0397 17.6472 24.3705 17.3543C26.0246 15.9265 27.7522 14.5718 29.5166 13.2903C29.8842 13.034 30.3988 13.1073 30.6929 13.4734C30.9502 13.8395 30.8767 14.3521 30.5091 14.645C28.7815 15.8898 27.0906 17.2079 25.51 18.5992C25.3262 18.7456 25.1424 18.8188 24.9219 18.8188ZM38.9634 9.33619C38.6693 9.33619 38.3753 9.15312 38.2282 8.89684C38.0077 8.4941 38.1915 7.98153 38.5958 7.76186C40.544 6.77332 42.5289 5.858 44.5506 5.05252C44.9917 4.86946 45.4695 5.08913 45.6166 5.52848C45.8004 5.96783 45.5798 6.4438 45.1387 6.59025C43.1538 7.39573 41.2056 8.27443 39.331 9.22636C39.2207 9.33619 39.1104 9.33619 38.9634 9.33619ZM54.8796 3.51479C54.512 3.51479 54.1444 3.25852 54.0709 2.8924C53.9606 2.45305 54.2547 2.01369 54.6958 1.90385C56.8277 1.39128 58.9965 0.988547 61.1284 0.695647C61.5695 0.622422 62.0106 0.951921 62.0841 1.39127C62.1576 1.83062 61.8268 2.26998 61.3857 2.34321C59.2905 2.63611 57.1586 3.03883 55.1001 3.51479C55.0266 3.51479 54.9531 3.51479 54.8796 3.51479ZM78.2209 2.01369C78.1841 2.01369 78.1473 2.01369 78.1473 2.01369C76.0154 1.79401 73.8834 1.68418 71.7515 1.64756C71.2736 1.64756 70.906 1.28144 70.9428 0.80548C70.9428 0.36613 71.3104 0 71.7882 0C73.9569 0.0366125 76.1624 0.14645 78.3311 0.366125C78.7722 0.402738 79.1398 0.805475 79.0663 1.28144C78.9928 1.68418 78.6252 2.01369 78.2209 2.01369Z" fill="#F58220"/>
<path d="M91.785 4.7654C91.7115 4.7654 91.6012 4.76541 91.5277 4.72872C90.4984 4.39851 89.4325 4.10498 88.3665 3.81145C87.9254 3.70138 87.6681 3.22439 87.7784 2.7841C87.8886 2.34381 88.3665 2.08698 88.8076 2.19705C89.9103 2.49058 90.9763 2.78411 92.0423 3.11432C92.4834 3.26108 92.7407 3.70137 92.5937 4.14166C92.4834 4.54526 92.1526 4.7654 91.785 4.7654Z" fill="#F58220"/>
<path d="M87.6673 76.4221L72.7696 46.6267C72.6906 46.4686 72.5606 46.3419 72.4006 46.267C72.2406 46.1922 72.06 46.1735 71.888 46.2141C71.7161 46.2547 71.5629 46.3522 71.4533 46.4907C71.3437 46.6292 71.2841 46.8007 71.2841 46.9774V72.3898C71.2841 72.5415 71.3282 72.69 71.411 72.8173C71.4938 72.9445 71.6117 73.0449 71.7504 73.1064C72.4116 73.3939 72.9535 73.9003 73.2851 74.5405C73.6166 75.1806 73.7175 75.9155 73.5707 76.6213C73.4239 77.3272 73.0384 77.9609 72.4792 78.4158C71.9199 78.8708 71.221 79.1191 70.5 79.1191C69.7791 79.1191 69.0802 78.8708 68.5209 78.4158C67.9616 77.9609 67.5761 77.3272 67.4293 76.6213C67.2826 75.9155 67.3834 75.1806 67.715 74.5405C68.0465 73.9003 68.5885 73.3939 69.2496 73.1064C69.3884 73.0449 69.5063 72.9445 69.5891 72.8173C69.6718 72.69 69.7159 72.5415 69.7159 72.3898V46.9774C69.716 46.8007 69.6563 46.6292 69.5467 46.4907C69.4371 46.3522 69.2839 46.2547 69.112 46.2141C68.9401 46.1735 68.7595 46.1922 68.5995 46.267C68.4395 46.3419 68.3094 46.4686 68.2305 46.6267L53.3327 76.4221C53.2783 76.531 53.25 76.6511 53.25 76.7728C53.25 76.8946 53.2783 77.0147 53.3327 77.1236L60.3896 91.2372C60.4547 91.3675 60.5548 91.477 60.6787 91.5535C60.8026 91.6301 60.9453 91.6706 61.0909 91.6706H79.9091C80.0547 91.6706 80.1975 91.6301 80.3214 91.5535C80.4452 91.477 80.5453 91.3675 80.6105 91.2372L87.6673 77.1236C87.7217 77.0147 87.75 76.8946 87.75 76.7728C87.75 76.6511 87.7217 76.531 87.6673 76.4221Z" fill="#F58220"/>
<path d="M79.4204 40.7047H93.2386C93.4466 40.7047 93.646 40.622 93.7931 40.475C93.9401 40.328 94.0227 40.1285 94.0227 39.9206C94.0227 39.7126 93.9401 39.5132 93.7931 39.3661C93.646 39.2191 93.4466 39.1365 93.2386 39.1365H72.8523C72.6443 39.1365 72.4449 39.2191 72.2978 39.3661C72.1508 39.5132 72.0682 39.7126 72.0682 39.9206C72.0682 39.9309 72.0737 39.9395 72.0741 39.9498L72.0716 39.9581C72.0621 40.0606 72.0728 40.1641 72.1032 40.2624C72.1336 40.3608 72.1832 40.4522 72.2489 40.5314C72.3147 40.6106 72.3955 40.6761 72.4866 40.7241C72.5777 40.7721 72.6774 40.8016 72.7799 40.8111C78.8161 41.3508 84.4296 44.1375 88.5088 48.6193C92.5881 53.1011 94.8358 58.9513 94.8068 65.0115C94.8068 65.2194 94.8894 65.4189 95.0365 65.5659C95.1835 65.713 95.3829 65.7956 95.5909 65.7956C95.7989 65.7956 95.9983 65.713 96.1453 65.5659C96.2924 65.4189 96.375 65.2194 96.375 65.0115C96.3991 59.7064 94.783 54.5236 91.7479 50.1725C88.7129 45.8213 84.4073 42.5145 79.4204 40.7047Z" fill="#E4E4E4"/>
<path d="M68.1477 39.1365H47.7614C47.5534 39.1365 47.354 39.2191 47.2069 39.3661C47.0599 39.5132 46.9773 39.7126 46.9773 39.9206C46.9773 40.1285 47.0599 40.328 47.2069 40.475C47.354 40.622 47.5534 40.7047 47.7614 40.7047H61.5796C56.5927 42.5145 52.2871 45.8213 49.2521 50.1725C46.2171 54.5236 44.601 59.7064 44.625 65.0115C44.625 65.2194 44.7076 65.4189 44.8547 65.5659C45.0017 65.713 45.2012 65.7956 45.4091 65.7956C45.6171 65.7956 45.8165 65.713 45.9635 65.5659C46.1106 65.4189 46.1932 65.2194 46.1932 65.0115C46.1642 58.9513 48.4119 53.1011 52.4912 48.6193C56.5704 44.1375 62.1839 41.3508 68.2201 40.8111C68.3227 40.8016 68.4223 40.7721 68.5134 40.7241C68.6045 40.6761 68.6853 40.6106 68.7511 40.5314C68.8169 40.4522 68.8664 40.3608 68.8968 40.2624C68.9272 40.1641 68.938 40.0606 68.9284 39.9581L68.9259 39.9499C68.9263 39.9395 68.9318 39.9309 68.9318 39.9206C68.9318 39.7126 68.8492 39.5132 68.7022 39.3661C68.5551 39.2191 68.3557 39.1365 68.1477 39.1365Z" fill="#E4E4E4"/>
<path d="M81.4773 94.8069H59.5227C59.0897 94.8069 58.7386 95.1579 58.7386 95.591V103.432C58.7386 103.865 59.0897 104.216 59.5227 104.216H81.4773C81.9103 104.216 82.2614 103.865 82.2614 103.432V95.591C82.2614 95.1579 81.9103 94.8069 81.4773 94.8069Z" fill="#F58220"/>
<path d="M83.8296 90.1023H57.1705C56.7374 90.1023 56.3864 90.4533 56.3864 90.8864V95.5909C56.3864 96.024 56.7374 96.375 57.1705 96.375H83.8296C84.2626 96.375 84.6137 96.024 84.6137 95.5909V90.8864C84.6137 90.4533 84.2626 90.1023 83.8296 90.1023Z" fill="#C56600"/>
<path d="M72.8523 36.7842H68.1477C67.7147 36.7842 67.3636 37.1352 67.3636 37.5683V42.2728C67.3636 42.7059 67.7147 43.0569 68.1477 43.0569H72.8523C73.2853 43.0569 73.6364 42.7059 73.6364 42.2728V37.5683C73.6364 37.1352 73.2853 36.7842 72.8523 36.7842Z" fill="#F58220"/>
<path d="M47.7614 64.2273H43.0568C42.6238 64.2273 42.2727 64.5783 42.2727 65.0114V69.7159C42.2727 70.149 42.6238 70.5 43.0568 70.5H47.7614C48.1944 70.5 48.5455 70.149 48.5455 69.7159V65.0114C48.5455 64.5783 48.1944 64.2273 47.7614 64.2273Z" fill="#F58220"/>
<path d="M97.9432 64.2273H93.2387C92.8056 64.2273 92.4546 64.5783 92.4546 65.0114V69.7159C92.4546 70.149 92.8056 70.5 93.2387 70.5H97.9432C98.3762 70.5 98.7273 70.149 98.7273 69.7159V65.0114C98.7273 64.5783 98.3762 64.2273 97.9432 64.2273Z" fill="#F58220"/>
<path d="M95.5909 43.0569C97.3231 43.0569 98.7273 41.6527 98.7273 39.9205C98.7273 38.1884 97.3231 36.7842 95.5909 36.7842C93.8588 36.7842 92.4546 38.1884 92.4546 39.9205C92.4546 41.6527 93.8588 43.0569 95.5909 43.0569Z" fill="#F58220"/>
<path d="M45.4091 43.0569C47.1413 43.0569 48.5455 41.6527 48.5455 39.9205C48.5455 38.1884 47.1413 36.7842 45.4091 36.7842C43.6769 36.7842 42.2727 38.1884 42.2727 39.9205C42.2727 41.6527 43.6769 43.0569 45.4091 43.0569Z" fill="#F58220"/>
</svg>
