<svg width="142" height="142" viewBox="0 0 142 142" fill="none" xmlns="http://www.w3.org/2000/svg">
<path d="M129.353 32.6307C129.096 32.6307 128.802 32.4839 128.655 32.2638C128.066 31.3465 127.405 30.466 126.743 29.5854C126.486 29.2185 126.559 28.7048 126.927 28.4113C127.295 28.1545 127.809 28.2279 128.103 28.5948C128.765 29.512 129.427 30.4293 130.051 31.3465C130.309 31.7134 130.198 32.2638 129.831 32.4839C129.684 32.594 129.5 32.6307 129.353 32.6307Z" fill="#F58220"/>
<path d="M70.9807 141.507C69.7309 141.507 68.4444 141.471 67.1946 141.398C66.7168 141.361 66.3859 140.995 66.4227 140.519C66.4595 140.043 66.8638 139.713 67.3049 139.75C69.4736 139.86 71.6791 139.86 73.811 139.787C74.2889 139.787 74.6565 140.116 74.6932 140.592C74.73 141.068 74.3624 141.434 73.8846 141.471C72.9288 141.471 71.9731 141.507 70.9807 141.507ZM84.4708 140.189C84.0665 140.189 83.7357 139.896 83.6622 139.53C83.5886 139.091 83.8827 138.652 84.3238 138.542C86.3822 138.139 88.4407 137.626 90.4624 137.041L90.6462 137.004C91.0872 136.858 91.5651 137.114 91.6754 137.553C91.8224 137.993 91.5651 138.469 91.124 138.578L90.9402 138.615C88.845 139.201 86.7498 139.713 84.6546 140.153C84.5811 140.189 84.5076 140.189 84.4708 140.189ZM100.828 134.881C100.497 134.881 100.203 134.697 100.056 134.405C99.8724 134.002 100.056 133.489 100.461 133.306C102.409 132.391 104.357 131.366 106.195 130.304C106.599 130.084 107.114 130.194 107.334 130.597C107.555 131 107.445 131.512 107.04 131.732C105.129 132.83 103.144 133.892 101.159 134.807C101.085 134.844 100.975 134.881 100.828 134.881ZM115.421 125.727C115.164 125.727 114.943 125.618 114.759 125.434C114.465 125.068 114.539 124.556 114.87 124.263C116.524 122.908 118.178 121.444 119.685 119.943C120.016 119.613 120.53 119.613 120.861 119.943C121.192 120.272 121.192 120.785 120.861 121.114C119.281 122.652 117.626 124.153 115.899 125.544C115.789 125.691 115.605 125.727 115.421 125.727ZM127.331 113.316C127.147 113.316 127 113.279 126.816 113.169C126.448 112.913 126.375 112.364 126.632 111.998C127.919 110.277 129.132 108.483 130.271 106.616C130.528 106.213 131.006 106.103 131.411 106.323C131.815 106.579 131.925 107.055 131.705 107.458C130.565 109.325 129.315 111.192 127.992 112.95C127.845 113.206 127.588 113.316 127.331 113.316ZM135.858 98.4145C135.748 98.4145 135.638 98.3778 135.528 98.3412C135.086 98.1582 134.903 97.6822 135.086 97.2429C135.932 95.2658 136.667 93.2155 137.292 91.1652C137.439 90.7258 137.88 90.4695 138.321 90.616C138.762 90.7624 139.02 91.2018 138.873 91.6412C138.211 93.7281 137.439 95.8516 136.594 97.8653C136.483 98.1948 136.152 98.4145 135.858 98.4145ZM140.49 81.8656C140.453 81.8656 140.416 81.8656 140.38 81.8656C139.938 81.7924 139.608 81.3896 139.681 80.9137C140.012 78.7902 140.233 76.63 140.343 74.4699C140.38 74.0305 140.784 73.6644 141.225 73.701C141.703 73.7376 142.034 74.1037 141.997 74.5797C141.887 76.7764 141.666 79.0098 141.335 81.1699C141.225 81.5727 140.894 81.8656 140.49 81.8656ZM140.894 64.6943C140.453 64.6943 140.122 64.3648 140.049 63.9621C139.828 61.8385 139.497 59.6784 139.093 57.5549C139.02 57.1155 139.314 56.6762 139.755 56.5664C140.196 56.4931 140.637 56.786 140.747 57.2254C141.188 59.3855 141.482 61.5823 141.703 63.779C141.74 64.2184 141.409 64.6577 140.968 64.6943C140.931 64.6943 140.931 64.6943 140.894 64.6943ZM137.108 47.9624C136.777 47.9624 136.446 47.7427 136.336 47.4132C135.601 45.3995 134.792 43.3858 133.873 41.4088C133.69 41.006 133.873 40.4934 134.278 40.3104C134.682 40.1273 135.197 40.3104 135.381 40.7131C136.299 42.6902 137.182 44.7771 137.917 46.864C138.064 47.3034 137.843 47.7794 137.402 47.9258C137.292 47.9258 137.182 47.9624 137.108 47.9624Z" fill="#F58220"/>
<path d="M56.6445 140.011C56.571 140.011 56.5342 140.011 56.4607 140.011C55.358 139.791 54.2552 139.534 53.1893 139.241C52.7482 139.131 52.4909 138.654 52.6012 138.213C52.7114 137.773 53.1893 137.516 53.6304 137.626C54.6963 137.92 55.7623 138.14 56.8283 138.397C57.2694 138.507 57.5634 138.947 57.4899 139.387C57.3797 139.754 57.0121 140.011 56.6445 140.011Z" fill="#F58220"/>
<path d="M11.3213 108.346C11.0272 108.346 10.7699 108.199 10.6229 107.942C10.0348 106.988 9.44665 105.998 8.93204 105.044C8.71149 104.64 8.85852 104.127 9.26286 103.906C9.66719 103.686 10.1818 103.833 10.4024 104.237C10.917 105.191 11.5051 106.145 12.0565 107.062C12.3138 107.465 12.1667 107.979 11.7992 108.199C11.6154 108.309 11.4683 108.346 11.3213 108.346Z" fill="#F58220"/>
<path d="M5.21962 95.9248C4.8888 95.9248 4.55798 95.7051 4.44771 95.3756C3.85958 93.8013 3.30821 92.1537 2.83036 90.5061C2.68333 90.0668 2.57305 89.5908 2.46278 89.1515C2.35251 88.7121 2.60981 88.2361 3.05091 88.1263C3.492 88.0165 3.96985 88.2728 4.08013 88.7121C4.1904 89.1515 4.33743 89.5908 4.44771 90.0302C4.92556 91.6411 5.44017 93.2155 6.0283 94.7898C6.17533 95.2291 5.95478 95.7051 5.55044 95.8516C5.44017 95.9248 5.3299 95.9248 5.21962 95.9248ZM1.28653 79.5224C0.88219 79.5224 0.51461 79.1928 0.441094 78.7901C0.183788 76.63 0.0367579 74.4332 0 72.2731C0 71.7971 0.367578 71.431 0.808673 71.431C1.24977 71.431 1.65411 71.7971 1.65411 72.2365C1.69086 74.36 1.8379 76.4835 2.0952 78.607C2.13196 79.0464 1.83789 79.4857 1.36004 79.5224C1.36004 79.5224 1.32329 79.5224 1.28653 79.5224ZM1.3968 62.6074C1.36004 62.6074 1.32329 62.6074 1.28653 62.6074C0.845432 62.5342 0.514611 62.1314 0.551369 61.6921C0.845432 59.5319 1.21301 57.3718 1.69086 55.2483C1.80113 54.8089 2.24223 54.516 2.68333 54.6258C3.12442 54.7357 3.41849 55.1751 3.30821 55.6144C2.83036 57.6647 2.46278 59.7882 2.20548 61.8751C2.16872 62.3145 1.80114 62.6074 1.3968 62.6074ZM5.5872 46.2416C5.47693 46.2416 5.36665 46.2416 5.29314 46.1684C4.85204 45.9853 4.66825 45.5093 4.81528 45.1066C5.5872 43.0929 6.50615 41.0792 7.46186 39.1388C7.68241 38.736 8.16026 38.553 8.5646 38.7727C8.96893 38.9923 9.15272 39.4683 8.93218 39.871C7.97647 41.7749 7.09428 43.7154 6.35912 45.6924C6.24885 46.0586 5.91802 46.2416 5.5872 46.2416ZM13.6004 31.3769C13.4534 31.3769 13.2696 31.3403 13.1226 31.2305C12.755 30.9742 12.6447 30.4616 12.902 30.0589C14.1518 28.3015 15.5118 26.5441 16.9086 24.8965C17.2027 24.5304 17.7173 24.4938 18.0849 24.7867C18.4525 25.0796 18.4892 25.5922 18.1952 25.9583C16.8351 27.5692 15.5118 29.2534 14.2988 31.0108C14.115 31.2305 13.8577 31.3769 13.6004 31.3769ZM24.9219 18.8188C24.7013 18.8188 24.444 18.709 24.297 18.5259C24.0029 18.1964 24.0397 17.6472 24.3705 17.3543C26.0246 15.9265 27.7522 14.5718 29.5166 13.2903C29.8842 13.034 30.3988 13.1073 30.6929 13.4734C30.9502 13.8395 30.8767 14.3521 30.5091 14.645C28.7815 15.8898 27.0906 17.2079 25.51 18.5992C25.3262 18.7456 25.1424 18.8188 24.9219 18.8188ZM38.9634 9.33619C38.6693 9.33619 38.3753 9.15312 38.2282 8.89684C38.0077 8.4941 38.1915 7.98153 38.5958 7.76186C40.544 6.77332 42.5289 5.858 44.5506 5.05252C44.9917 4.86946 45.4695 5.08913 45.6166 5.52848C45.8004 5.96783 45.5798 6.4438 45.1387 6.59025C43.1538 7.39573 41.2056 8.27443 39.331 9.22636C39.2207 9.33619 39.1104 9.33619 38.9634 9.33619ZM54.8796 3.51479C54.512 3.51479 54.1444 3.25852 54.0709 2.8924C53.9606 2.45305 54.2547 2.01369 54.6958 1.90385C56.8277 1.39128 58.9965 0.988547 61.1284 0.695647C61.5695 0.622422 62.0106 0.951921 62.0841 1.39127C62.1576 1.83062 61.8268 2.26998 61.3857 2.34321C59.2905 2.63611 57.1586 3.03883 55.1001 3.51479C55.0266 3.51479 54.9531 3.51479 54.8796 3.51479ZM78.2209 2.01369C78.1841 2.01369 78.1473 2.01369 78.1473 2.01369C76.0154 1.79401 73.8834 1.68418 71.7515 1.64756C71.2736 1.64756 70.906 1.28144 70.9428 0.80548C70.9428 0.36613 71.3104 0 71.7882 0C73.9569 0.0366125 76.1624 0.14645 78.3311 0.366125C78.7722 0.402738 79.1398 0.805475 79.0663 1.28144C78.9928 1.68418 78.6252 2.01369 78.2209 2.01369Z" fill="#F58220"/>
<path d="M91.785 4.76565C91.7115 4.76565 91.6012 4.76566 91.5277 4.72897C90.4985 4.39875 89.4325 4.10522 88.3665 3.8117C87.9254 3.70163 87.6681 3.22463 87.7784 2.78434C87.8887 2.34405 88.3665 2.08723 88.8076 2.1973C89.9104 2.49082 90.9763 2.78435 92.0423 3.11457C92.4834 3.26133 92.7407 3.70161 92.5937 4.1419C92.4834 4.5455 92.1526 4.76565 91.785 4.76565Z" fill="#F58220"/>
<g clip-path="url(#clip0_541_2909)">
<path d="M73.0395 88.4574H62.4213L56.079 77.7845L61.7681 68.2287C62.0374 67.7764 61.8891 67.1914 61.4368 66.922C60.9842 66.6525 60.3993 66.8011 60.13 67.2533L54.1508 77.2965C53.9721 77.5967 53.9718 77.9707 54.1504 78.2711L60.2037 88.4576H58.9668C58.4403 88.4576 58.0135 88.8844 58.0135 89.4109V97.0263C58.0135 97.5527 58.4403 97.9796 58.9668 97.9796H62.0982C62.6247 97.9796 63.0515 97.5527 63.0515 97.0263C63.0515 96.4998 62.6248 96.073 62.0982 96.073H59.9199V90.3641H61.8599C61.8666 90.3643 61.8731 90.3654 61.8797 90.3654H73.0395C73.566 90.3654 73.9928 89.9386 73.9928 89.4121C73.9928 89.4117 73.9928 89.4112 73.9928 89.4109C73.9927 88.8843 73.566 88.4574 73.0395 88.4574Z" fill="#F58220"/>
<path d="M103.047 74.6582H100.924C100.708 67.6554 98.0233 60.9818 93.3066 55.7774C90.2368 52.39 86.4671 49.7955 82.3022 48.1467H96.1223C96.581 49.824 98.1175 51.0607 99.9383 51.0607C102.12 51.0607 103.895 49.2859 103.895 47.1043C103.895 44.9228 102.12 43.1479 99.9383 43.1479C98.0536 43.1479 96.4736 44.473 96.0781 46.24H75.405V43.9743C75.405 43.4478 74.9781 43.021 74.4517 43.021H68.4428C67.9164 43.021 67.4896 43.4478 67.4896 43.9743V46.2401H46.8164C46.421 44.4731 44.841 43.1481 42.9564 43.1481C40.7748 43.1481 39 44.9229 39 47.1043C39 49.2859 40.7748 51.0607 42.9564 51.0607C44.7771 51.0607 46.3136 49.8239 46.7723 48.1467H60.5924C56.4274 49.7955 52.6577 52.39 49.588 55.7774C44.8713 60.9818 42.1869 67.6554 41.9706 74.6582H39.9533C39.4268 74.6582 39 75.085 39 75.6115V81.6203C39 82.1468 39.4268 82.5736 39.9533 82.5736H45.9621C46.4886 82.5736 46.9154 82.1468 46.9154 81.6203V75.6115C46.9154 75.085 46.4886 74.6582 45.9621 74.6582H43.878C44.0937 68.1297 46.6025 61.9106 51.0005 57.0576C55.3333 52.2766 61.1556 49.1841 67.4896 48.2734V49.9831C67.4896 50.5096 67.9164 50.9364 68.4428 50.9364H69.8444L62.0952 63.9528C61.8259 64.4051 61.9742 64.9901 62.4265 65.2595C62.879 65.5289 63.464 65.3802 63.7333 64.9282L70.4942 53.5721V71.2208C68.8516 71.6452 67.6348 73.1395 67.6348 74.9128C67.6348 77.0151 69.3451 78.7253 71.4473 78.7253C73.5495 78.7253 75.26 77.015 75.26 74.9128C75.26 73.1395 74.0431 71.6452 72.4005 71.2208V53.5719L86.8154 77.7843L80.473 88.4573H76.8525C76.3588 88.4573 75.9526 88.8327 75.904 89.3138C75.9007 89.3461 75.8991 89.3788 75.8991 89.4118C75.8991 89.9383 76.3259 90.3651 76.8523 90.3651H81.0146C81.0214 90.3651 81.0278 90.364 81.0344 90.3638H82.9744V96.0727H65.9113C65.3848 96.0727 64.958 96.4995 64.958 97.026C64.958 97.5524 65.3848 97.9793 65.9113 97.9793H83.9278C84.4543 97.9793 84.8811 97.5524 84.8811 97.026V89.4106C84.8811 88.8841 84.4543 88.4573 83.9278 88.4573H82.6909L88.7442 78.2708C88.9227 77.9703 88.9225 77.5964 88.7438 77.2962L73.0502 50.9364H74.4518C74.9783 50.9364 75.4051 50.5096 75.4051 49.9831V48.2734C81.739 49.1841 87.5614 52.2766 91.8943 57.0576C96.2924 61.9106 98.801 68.1297 99.0167 74.6582H97.0379C96.5114 74.6582 96.0846 75.085 96.0846 75.6115V81.6203C96.0846 82.1468 96.5114 82.5736 97.0379 82.5736H103.047C103.573 82.5736 104 82.1468 104 81.6203V75.6115C104 75.0849 103.573 74.6582 103.047 74.6582ZM99.9383 45.0547C101.069 45.0547 101.988 45.9742 101.988 47.1044C101.988 48.2347 101.069 49.1542 99.9383 49.1542C98.808 49.1542 97.8885 48.2347 97.8885 47.1044C97.8886 45.9742 98.808 45.0547 99.9383 45.0547ZM42.9564 49.1542C41.8261 49.1542 40.9066 48.2347 40.9066 47.1044C40.9066 45.9742 41.8261 45.0547 42.9564 45.0547C44.0866 45.0547 45.0062 45.9742 45.0062 47.1044C45.0062 48.2347 44.0866 49.1542 42.9564 49.1542ZM45.0088 76.5647V80.667H40.9065V76.5647H45.0088ZM73.3535 74.9128C73.3535 75.9638 72.4984 76.8188 71.4473 76.8188C70.3963 76.8188 69.5412 75.9637 69.5412 74.9128C69.5412 73.8617 70.3964 73.0067 71.4473 73.0067C72.4984 73.0066 73.3535 73.8616 73.3535 74.9128ZM73.4985 47.1898C73.4985 47.1909 73.4985 47.192 73.4985 47.1932V49.0298H69.3961V47.1945C69.3961 47.1925 69.3961 47.1905 69.3961 47.1886V44.9276H73.4985V47.1898ZM102.094 80.667H97.9911V76.5647H102.094V80.667Z" fill="#F58220"/>
</g>
<defs>
<clipPath id="clip0_541_2909">
<rect width="65" height="65" fill="white" transform="translate(39 38)"/>
</clipPath>
</defs>
</svg>
