<svg width="142" height="142" viewBox="0 0 142 142" fill="none" xmlns="http://www.w3.org/2000/svg">
<path d="M129.353 32.6307C129.096 32.6307 128.802 32.4839 128.655 32.2638C128.066 31.3465 127.405 30.466 126.743 29.5854C126.486 29.2185 126.559 28.7048 126.927 28.4113C127.295 28.1545 127.809 28.2279 128.103 28.5948C128.765 29.512 129.427 30.4293 130.051 31.3465C130.309 31.7134 130.198 32.2638 129.831 32.4839C129.684 32.594 129.5 32.6307 129.353 32.6307Z" fill="#F58220"/>
<path d="M70.9807 141.507C69.7309 141.507 68.4444 141.471 67.1946 141.398C66.7168 141.361 66.3859 140.995 66.4227 140.519C66.4595 140.043 66.8638 139.713 67.3049 139.75C69.4736 139.86 71.6791 139.86 73.811 139.787C74.2889 139.787 74.6565 140.116 74.6932 140.592C74.73 141.068 74.3624 141.434 73.8846 141.471C72.9288 141.471 71.9731 141.507 70.9807 141.507ZM84.4708 140.189C84.0665 140.189 83.7357 139.896 83.6622 139.53C83.5886 139.091 83.8827 138.652 84.3238 138.542C86.3822 138.139 88.4407 137.626 90.4624 137.041L90.6462 137.004C91.0872 136.858 91.5651 137.114 91.6754 137.553C91.8224 137.993 91.5651 138.469 91.124 138.578L90.9402 138.615C88.845 139.201 86.7498 139.713 84.6546 140.153C84.5811 140.189 84.5076 140.189 84.4708 140.189ZM100.828 134.881C100.497 134.881 100.203 134.697 100.056 134.405C99.8724 134.002 100.056 133.489 100.461 133.306C102.409 132.391 104.357 131.366 106.195 130.304C106.599 130.084 107.114 130.194 107.334 130.597C107.555 131 107.445 131.512 107.04 131.732C105.129 132.83 103.144 133.892 101.159 134.807C101.085 134.844 100.975 134.881 100.828 134.881ZM115.421 125.727C115.164 125.727 114.943 125.618 114.759 125.434C114.465 125.068 114.539 124.556 114.87 124.263C116.524 122.908 118.178 121.444 119.685 119.943C120.016 119.613 120.53 119.613 120.861 119.943C121.192 120.272 121.192 120.785 120.861 121.114C119.281 122.652 117.626 124.153 115.899 125.544C115.789 125.691 115.605 125.727 115.421 125.727ZM127.331 113.316C127.147 113.316 127 113.279 126.816 113.169C126.448 112.913 126.375 112.364 126.632 111.998C127.919 110.277 129.132 108.483 130.271 106.616C130.528 106.213 131.006 106.103 131.411 106.323C131.815 106.579 131.925 107.055 131.705 107.458C130.565 109.325 129.315 111.192 127.992 112.95C127.845 113.206 127.588 113.316 127.331 113.316ZM135.858 98.4145C135.748 98.4145 135.638 98.3778 135.528 98.3412C135.086 98.1582 134.903 97.6822 135.086 97.2429C135.932 95.2658 136.667 93.2155 137.292 91.1652C137.439 90.7258 137.88 90.4695 138.321 90.616C138.762 90.7624 139.02 91.2018 138.873 91.6412C138.211 93.7281 137.439 95.8516 136.594 97.8653C136.483 98.1948 136.152 98.4145 135.858 98.4145ZM140.49 81.8656C140.453 81.8656 140.416 81.8656 140.38 81.8656C139.938 81.7924 139.608 81.3896 139.681 80.9137C140.012 78.7902 140.233 76.63 140.343 74.4699C140.38 74.0305 140.784 73.6644 141.225 73.701C141.703 73.7376 142.034 74.1037 141.997 74.5797C141.887 76.7764 141.666 79.0098 141.335 81.1699C141.225 81.5727 140.894 81.8656 140.49 81.8656ZM140.894 64.6943C140.453 64.6943 140.122 64.3648 140.049 63.9621C139.828 61.8385 139.497 59.6784 139.093 57.5549C139.02 57.1155 139.314 56.6762 139.755 56.5664C140.196 56.4931 140.637 56.786 140.747 57.2254C141.188 59.3855 141.482 61.5823 141.703 63.779C141.74 64.2184 141.409 64.6577 140.968 64.6943C140.931 64.6943 140.931 64.6943 140.894 64.6943ZM137.108 47.9624C136.777 47.9624 136.446 47.7427 136.336 47.4132C135.601 45.3995 134.792 43.3858 133.873 41.4088C133.69 41.006 133.873 40.4934 134.278 40.3104C134.682 40.1273 135.197 40.3104 135.381 40.7131C136.299 42.6902 137.182 44.7771 137.917 46.864C138.064 47.3034 137.843 47.7794 137.402 47.9258C137.292 47.9258 137.182 47.9624 137.108 47.9624Z" fill="#F58220"/>
<path d="M56.6445 140.011C56.571 140.011 56.5342 140.011 56.4607 140.011C55.358 139.791 54.2552 139.534 53.1893 139.241C52.7482 139.131 52.4909 138.654 52.6012 138.213C52.7114 137.773 53.1893 137.516 53.6304 137.626C54.6963 137.92 55.7623 138.14 56.8283 138.397C57.2694 138.507 57.5634 138.947 57.4899 139.387C57.3797 139.754 57.0121 140.011 56.6445 140.011Z" fill="#F58220"/>
<path d="M11.3213 108.346C11.0272 108.346 10.7699 108.199 10.6229 107.942C10.0348 106.988 9.44665 105.998 8.93204 105.044C8.71149 104.64 8.85852 104.127 9.26286 103.906C9.66719 103.686 10.1818 103.833 10.4024 104.237C10.917 105.191 11.5051 106.145 12.0565 107.062C12.3138 107.465 12.1667 107.979 11.7992 108.199C11.6154 108.309 11.4683 108.346 11.3213 108.346Z" fill="#F58220"/>
<path d="M5.21962 95.9248C4.8888 95.9248 4.55798 95.7051 4.44771 95.3756C3.85958 93.8013 3.30821 92.1537 2.83036 90.5061C2.68333 90.0668 2.57305 89.5908 2.46278 89.1515C2.35251 88.7121 2.60981 88.2361 3.05091 88.1263C3.492 88.0165 3.96985 88.2728 4.08013 88.7121C4.1904 89.1515 4.33743 89.5908 4.44771 90.0302C4.92556 91.6411 5.44017 93.2155 6.0283 94.7898C6.17533 95.2291 5.95478 95.7051 5.55044 95.8516C5.44017 95.9248 5.3299 95.9248 5.21962 95.9248ZM1.28653 79.5224C0.88219 79.5224 0.51461 79.1928 0.441094 78.7901C0.183788 76.63 0.0367579 74.4332 0 72.2731C0 71.7971 0.367578 71.431 0.808673 71.431C1.24977 71.431 1.65411 71.7971 1.65411 72.2365C1.69086 74.36 1.8379 76.4835 2.0952 78.607C2.13196 79.0464 1.83789 79.4857 1.36004 79.5224C1.36004 79.5224 1.32329 79.5224 1.28653 79.5224ZM1.3968 62.6074C1.36004 62.6074 1.32329 62.6074 1.28653 62.6074C0.845432 62.5342 0.514611 62.1314 0.551369 61.6921C0.845432 59.5319 1.21301 57.3718 1.69086 55.2483C1.80113 54.8089 2.24223 54.516 2.68333 54.6258C3.12442 54.7357 3.41849 55.1751 3.30821 55.6144C2.83036 57.6647 2.46278 59.7882 2.20548 61.8751C2.16872 62.3145 1.80114 62.6074 1.3968 62.6074ZM5.5872 46.2416C5.47693 46.2416 5.36665 46.2416 5.29314 46.1684C4.85204 45.9853 4.66825 45.5093 4.81528 45.1066C5.5872 43.0929 6.50615 41.0792 7.46186 39.1388C7.68241 38.736 8.16026 38.553 8.5646 38.7727C8.96893 38.9923 9.15272 39.4683 8.93218 39.871C7.97647 41.7749 7.09428 43.7154 6.35912 45.6924C6.24885 46.0586 5.91802 46.2416 5.5872 46.2416ZM13.6004 31.3769C13.4534 31.3769 13.2696 31.3403 13.1226 31.2305C12.755 30.9742 12.6447 30.4616 12.902 30.0589C14.1518 28.3015 15.5118 26.5441 16.9086 24.8965C17.2027 24.5304 17.7173 24.4938 18.0849 24.7867C18.4525 25.0796 18.4892 25.5922 18.1952 25.9583C16.8351 27.5692 15.5118 29.2534 14.2988 31.0108C14.115 31.2305 13.8577 31.3769 13.6004 31.3769ZM24.9219 18.8188C24.7013 18.8188 24.444 18.709 24.297 18.5259C24.0029 18.1964 24.0397 17.6472 24.3705 17.3543C26.0246 15.9265 27.7522 14.5718 29.5166 13.2903C29.8842 13.034 30.3988 13.1073 30.6929 13.4734C30.9502 13.8395 30.8767 14.3521 30.5091 14.645C28.7815 15.8898 27.0906 17.2079 25.51 18.5992C25.3262 18.7456 25.1424 18.8188 24.9219 18.8188ZM38.9634 9.33619C38.6693 9.33619 38.3753 9.15312 38.2282 8.89684C38.0077 8.4941 38.1915 7.98153 38.5958 7.76186C40.544 6.77332 42.5289 5.858 44.5506 5.05252C44.9917 4.86946 45.4695 5.08913 45.6166 5.52848C45.8004 5.96783 45.5798 6.4438 45.1387 6.59025C43.1538 7.39573 41.2056 8.27443 39.331 9.22636C39.2207 9.33619 39.1104 9.33619 38.9634 9.33619ZM54.8796 3.51479C54.512 3.51479 54.1444 3.25852 54.0709 2.8924C53.9606 2.45305 54.2547 2.01369 54.6958 1.90385C56.8277 1.39128 58.9965 0.988547 61.1284 0.695647C61.5695 0.622422 62.0106 0.951921 62.0841 1.39127C62.1576 1.83062 61.8268 2.26998 61.3857 2.34321C59.2905 2.63611 57.1586 3.03883 55.1001 3.51479C55.0266 3.51479 54.9531 3.51479 54.8796 3.51479ZM78.2209 2.01369C78.1841 2.01369 78.1473 2.01369 78.1473 2.01369C76.0154 1.79401 73.8834 1.68418 71.7515 1.64756C71.2736 1.64756 70.906 1.28144 70.9428 0.80548C70.9428 0.36613 71.3104 0 71.7882 0C73.9569 0.0366125 76.1624 0.14645 78.3311 0.366125C78.7722 0.402738 79.1398 0.805475 79.0663 1.28144C78.9928 1.68418 78.6252 2.01369 78.2209 2.01369Z" fill="#F58220"/>
<path d="M91.785 4.76565C91.7115 4.76565 91.6012 4.76566 91.5277 4.72897C90.4985 4.39875 89.4325 4.10522 88.3665 3.8117C87.9254 3.70163 87.6681 3.22463 87.7784 2.78434C87.8887 2.34405 88.3665 2.08723 88.8076 2.1973C89.9104 2.49082 90.9763 2.78435 92.0423 3.11457C92.4834 3.26133 92.7407 3.70161 92.5937 4.1419C92.4834 4.5455 92.1526 4.76565 91.785 4.76565Z" fill="#F58220"/>
<path d="M98.2669 44.2041H84.8101C84.3003 44.2041 83.8872 44.6172 83.8872 45.127C83.8872 45.6367 84.3003 46.0498 84.8101 46.0498H98.2669C99.8591 46.0498 101.154 47.3451 101.154 48.9372V54.7193H41.8457V48.9372C41.8457 47.3451 43.1409 46.0498 44.7331 46.0498H80.0892C80.5989 46.0498 81.012 45.6367 81.012 45.127C81.012 44.6172 80.5989 44.2041 80.0892 44.2041H44.7331C42.1233 44.2041 40 46.3274 40 48.9372V87.5311C40 90.1409 42.1233 92.2642 44.7331 92.2642H78.5714L78.196 93.1562C78.0212 93.5714 78.0188 94.0297 78.1887 94.4468C78.3588 94.864 78.681 95.1899 79.0962 95.3647L82.1032 96.6298C82.9607 96.9902 83.951 96.5865 84.3115 95.7295L84.8682 94.4062C85.4335 94.4545 86.0012 94.4572 86.5672 94.4153L87.1094 95.7451C87.2793 96.1624 87.6015 96.4882 88.0167 96.6629C88.432 96.8378 88.8903 96.8402 89.3073 96.6703L92.3281 95.4386C92.7455 95.2687 93.0715 94.9464 93.2462 94.5311C93.4209 94.116 93.4234 93.6575 93.2535 93.2405L92.8288 92.199C92.9339 92.2406 93.0482 92.2642 93.1682 92.2642H98.2668C100.877 92.2642 103 90.1409 103 87.5311V76.2039C103 75.6941 102.587 75.2811 102.077 75.2811C101.567 75.2811 101.154 75.6941 101.154 76.2039V87.5311C101.154 89.1232 99.859 90.4185 98.2668 90.4185H97.4293C97.4363 90.403 97.4447 90.3885 97.4513 90.3728L98.7165 87.3657C99.0771 86.5087 98.6732 85.5181 97.8163 85.1574C97.8163 85.1574 97.8163 85.1574 97.8162 85.1574L96.4929 84.6008C96.5411 84.0356 96.5441 83.4679 96.502 82.9018L97.832 82.3596C98.2492 82.1895 98.575 81.8673 98.7496 81.4521C98.9243 81.0368 98.9268 80.5785 98.7569 80.1616L97.5253 77.1405C97.3551 76.7233 97.0328 76.3975 96.6177 76.2227C96.2024 76.048 95.7438 76.0457 95.3272 76.2155L93.9972 76.7576C93.6315 76.3236 93.2323 75.9197 92.8029 75.5494L93.3598 74.2258C93.7203 73.3688 93.3162 72.3781 92.4594 72.0177L89.4524 70.7524C88.5949 70.3919 87.6046 70.7959 87.2441 71.6528L86.6873 72.976C86.1224 72.928 85.5545 72.9247 84.9884 72.967L84.4464 71.6372C84.2762 71.2199 83.9539 70.8941 83.5388 70.7193C83.1236 70.5446 82.665 70.5423 82.2483 70.7121L79.2272 71.9437C78.81 72.1138 78.4841 72.4361 78.3094 72.8513C78.1347 73.2664 78.1322 73.7249 78.3022 74.1418L78.8443 75.4718C78.4103 75.8374 78.0064 76.2365 77.6361 76.666L76.3125 76.1092C75.4557 75.7488 74.4648 76.1527 74.1044 77.0095L72.8391 80.0165C72.4785 80.8735 72.8824 81.8642 73.7393 82.2248L75.0627 82.7816C75.0145 83.3468 75.0115 83.9145 75.0536 84.4805L73.7238 85.0226C73.3066 85.1927 72.9807 85.515 72.806 85.9302C72.6313 86.3453 72.6288 86.8038 72.7988 87.2208L74.0305 90.242C74.0554 90.3034 74.0845 90.3618 74.1157 90.4185H44.7331C43.1409 90.4185 41.8457 89.1233 41.8457 87.5312V56.5651H101.154V71.5431C101.154 72.0529 101.567 72.466 102.077 72.466C102.587 72.466 103 72.0529 103 71.5431V48.9372C103 46.3274 100.877 44.2041 98.2669 44.2041ZM76.3939 85.9273C76.7861 85.7674 77.0191 85.3612 76.9592 84.9421C76.8356 84.0778 76.8402 83.2027 76.973 82.3411C77.0375 81.9228 76.8091 81.5141 76.4189 81.3499L74.602 80.5854L75.7438 77.8721L77.5606 78.6366C77.9511 78.8007 78.4028 78.6784 78.6567 78.3398C79.1798 77.6423 79.8023 77.0272 80.5064 76.5114C80.848 76.2611 80.9756 75.8107 80.8158 75.4185L80.0713 73.5925L82.7972 72.4813L83.5415 74.3071C83.7013 74.6993 84.1081 74.9316 84.5266 74.8724C85.3913 74.7489 86.2662 74.7536 87.1279 74.8862C87.5458 74.9513 87.9549 74.7223 88.1191 74.3321L88.8834 72.5152L91.5968 73.657L90.8323 75.4738C90.6681 75.8641 90.7904 76.3159 91.1291 76.5699C91.8262 77.0929 92.4415 77.7154 92.9575 78.4197C93.2078 78.7612 93.6585 78.8887 94.0503 78.729L95.8763 77.9845L96.9876 80.7104L95.1617 81.4548C94.7694 81.6148 94.5365 82.021 94.5964 82.4401C94.7201 83.3042 94.7154 84.1794 94.5826 85.041C94.5181 85.4594 94.7465 85.8681 95.1367 86.0323L96.9536 86.7968L95.8121 89.5101L93.9952 88.7455C93.6045 88.5813 93.1529 88.7036 92.8991 89.0423C92.3758 89.7397 91.7534 90.3549 91.0492 90.8707C90.7076 91.121 90.58 91.5715 90.7399 91.9636L91.4843 93.7895L88.7586 94.9008L88.0141 93.0749C87.871 92.7238 87.5304 92.5004 87.1601 92.5004C87.1166 92.5004 87.0728 92.5033 87.029 92.5096C86.1646 92.6331 85.2896 92.6283 84.4279 92.4958C84.0105 92.4308 83.6008 92.6596 83.4367 93.0499L82.6722 94.8668L79.959 93.7252L80.7235 91.9083C80.8847 91.5251 80.7684 91.0837 80.4435 90.8273C80.3403 90.6737 80.1919 90.5534 80.0177 90.4841C79.4873 90.0348 79.0107 89.5252 78.5983 88.9623C78.3482 88.6208 77.8977 88.4931 77.5054 88.6529L75.6794 89.3974L74.5682 86.6715L76.3939 85.9273Z" fill="#F58220"/>
<path d="M46.1152 50.3847C46.1152 51.3288 46.8806 52.0942 47.8246 52.0942C48.7687 52.0942 49.5341 51.3288 49.5341 50.3847C49.5341 49.4406 48.7687 48.6753 47.8246 48.6753C46.8806 48.6752 46.1152 49.4405 46.1152 50.3847Z" fill="#F58220"/>
<path d="M51.3735 50.3847C51.3735 51.3288 52.1389 52.0942 53.0829 52.0942C54.027 52.0942 54.7924 51.3288 54.7924 50.3847C54.7924 49.4406 54.027 48.6753 53.0829 48.6753C52.1389 48.6752 51.3735 49.4405 51.3735 50.3847Z" fill="#F58220"/>
<path d="M56.6323 50.3847C56.6323 51.3288 57.3977 52.0942 58.3417 52.0942C59.2858 52.0942 60.0512 51.3288 60.0512 50.3847C60.0512 49.4406 59.2858 48.6753 58.3417 48.6753C57.3977 48.6752 56.6323 49.4405 56.6323 50.3847Z" fill="#F58220"/>
<path d="M70.8708 62H65.9971C65.4873 62 65.0742 62.4131 65.0742 62.9229C65.0742 63.4326 65.4873 63.8457 65.9971 63.8457H70.8708C71.3806 63.8457 71.7937 63.4326 71.7937 62.9229C71.7937 62.4131 71.3806 62 70.8708 62Z" fill="#F58220"/>
<path d="M46.9229 63.8457H61.7169C62.2267 63.8457 62.6398 63.4326 62.6398 62.9229C62.6398 62.4131 62.2267 62 61.7169 62H46.9229C46.4131 62 46 62.4131 46 62.9229C46 63.4326 46.4132 63.8457 46.9229 63.8457Z" fill="#F58220"/>
<path d="M46.9229 67.7905H70.8711C71.3809 67.7905 71.7939 67.3775 71.7939 66.8677C71.7939 66.3579 71.3809 65.9448 70.8711 65.9448H46.9229C46.4131 65.9448 46 66.3579 46 66.8677C46 67.3775 46.4132 67.7905 46.9229 67.7905Z" fill="#F58220"/>
<path d="M83.4867 89.1369C84.2328 89.4508 85.0073 89.5993 85.7702 89.5993C88.0776 89.5993 90.2742 88.2393 91.2236 85.9827C92.4871 82.9802 91.0722 79.5095 88.0694 78.2459C86.6148 77.6338 85.0089 77.625 83.5477 78.2206C82.0864 78.8164 80.9445 79.9456 80.3325 81.4C79.0692 84.4027 80.4841 87.8734 83.4867 89.1369ZM82.0337 82.1159C82.4546 81.1157 83.2397 80.3393 84.2445 79.9297C85.2496 79.5202 86.3535 79.5262 87.3536 79.9472C89.4182 80.816 90.3912 83.2023 89.5224 85.2667C88.6537 87.3313 86.267 88.3044 84.2027 87.4356C82.138 86.567 81.165 84.1804 82.0337 82.1159Z" fill="#F58220"/>
<path d="M85.7778 85.0283C86.5162 85.0283 87.1147 84.4297 87.1147 83.6914C87.1147 82.9531 86.5161 82.3545 85.7778 82.3545C85.0394 82.3545 84.4409 82.9531 84.4409 83.6914C84.4409 84.4297 85.0394 85.0283 85.7778 85.0283Z" fill="#F58220"/>
</svg>
