<svg width="142" height="142" viewBox="0 0 142 142" fill="none" xmlns="http://www.w3.org/2000/svg">
<g clip-path="url(#clip0_541_2858)">
<path d="M71.3867 65H51.4629C42.3706 65 34.9999 72.2572 34.9999 81.2096C34.9999 87.6856 38.8574 93.2744 44.4328 95.8707C46.6717 96.9137 48.1079 99.1248 48.1079 101.564V105.041C48.1079 106.363 49.8432 106.89 50.599 105.798L54.4991 100.166C55.6893 98.4476 57.665 97.4193 59.7773 97.4193H71.3867C80.479 97.4193 87.8497 90.1621 87.8497 81.2096C87.849 72.2572 80.4784 65 71.3867 65Z" fill="#F1F1F1"/>
<path d="M50.2389 95.8976C44.6634 93.3013 40.806 87.7125 40.806 81.2365C40.806 72.2841 48.1767 65.0269 57.269 65.0269H50.978C41.8856 65.0269 34.515 72.2841 34.515 81.2365C34.515 87.7125 38.3718 93.3013 43.9472 95.8976C46.1868 96.9405 47.6223 99.1517 47.6223 101.59V105.068C47.6223 106.39 49.3576 106.917 50.114 105.825L53.8102 100.487C53.4493 98.5006 52.1336 96.7799 50.2389 95.8976Z" fill="#DDDDDD"/>
<path d="M69.9129 35H89.836C98.9283 35 106.299 42.2572 106.299 51.2097C106.299 57.6856 102.442 63.2738 96.8668 65.8707C94.6272 66.9137 93.1916 69.1248 93.1916 71.5636V75.041C93.1916 76.3626 91.4563 76.8901 90.6999 75.7979L86.7998 70.1653C85.6102 68.447 83.6346 67.4193 81.5217 67.4193H69.9129C60.8205 67.4193 53.4499 60.1621 53.4499 51.2097C53.4499 42.2572 60.8205 35 69.9129 35Z" fill="#EC7F02"/>
<path d="M88.2972 65.3547H76.6878C67.5955 65.3547 60.2248 58.0968 60.2248 49.145C60.2248 43.2435 63.4284 38.0788 68.2165 35.2439C59.9214 36.0799 53.4499 42.98 53.4499 51.3684C53.4499 60.3208 60.8205 67.578 69.9129 67.578H81.5223C83.6346 67.578 85.6102 68.6063 86.7998 70.3246L90.6999 75.9566C91.4563 77.0489 93.1916 76.5219 93.1916 75.1997V71.7223C93.1916 70.6404 93.4753 69.6036 93.9857 68.6933L93.5748 68.1013C92.3852 66.3824 90.4095 65.3547 88.2972 65.3547Z" fill="#C56600"/>
<path d="M76.2559 80.0464H61.3724C60.5504 80.0464 59.884 80.7128 59.884 81.5347C59.884 82.3567 60.5504 83.0231 61.3724 83.0231H76.2559C77.0779 83.0231 77.7442 82.3567 77.7442 81.5347C77.7442 80.7128 77.0778 80.0464 76.2559 80.0464Z" fill="#EC7F02"/>
<path d="M54.3771 77.5L49.4224 82.3952L47.559 80.4604C46.9873 79.8694 46.0448 79.8537 45.4537 80.4254C44.8627 80.9971 44.847 81.9396 45.4187 82.5307L48.3269 85.5535C48.6043 85.8364 48.983 85.9972 49.3792 86H49.3971C49.7873 85.9988 50.1615 85.8443 50.4389 85.5699L56.4608 79.6165C57.0838 79.0803 57.1542 78.1405 56.618 77.5175C56.0819 76.8945 55.1421 76.8241 54.5191 77.3603C54.4687 77.4036 54.4213 77.4503 54.3771 77.5Z" fill="#EC7F02"/>
<path d="M74.5454 45H66.3636C65.6105 45 65 45.6105 65 46.3636V54.5454C65 55.2985 65.6105 55.909 66.3636 55.909H74.5454C75.2985 55.909 75.909 55.2985 75.909 54.5454V46.3636C75.909 45.6105 75.2985 45 74.5454 45ZM73.1818 53.1818H67.7272V47.7272H73.1818V53.1818Z" fill="white"/>
<path d="M93.6364 49.0908H80.0001C79.247 49.0908 78.6365 49.7013 78.6365 50.4544C78.6365 51.2076 79.247 51.8181 80.0001 51.8181H93.6364C94.3895 51.8181 95 51.2076 95 50.4544C95 49.7014 94.3895 49.0908 93.6364 49.0908Z" fill="white"/>
</g>
<path d="M129.353 32.6304C129.096 32.6304 128.802 32.4837 128.655 32.2635C128.067 31.3463 127.405 30.4657 126.743 29.5852C126.486 29.2183 126.56 28.7046 126.927 28.4111C127.295 28.1543 127.809 28.2276 128.103 28.5945C128.765 29.5118 129.427 30.429 130.052 31.3463C130.309 31.7132 130.199 32.2635 129.831 32.4837C129.684 32.5937 129.5 32.6304 129.353 32.6304Z" fill="#F58220"/>
<path d="M70.981 141.507C69.7312 141.507 68.4447 141.471 67.1949 141.397C66.7171 141.361 66.3863 140.995 66.423 140.519C66.4598 140.043 66.8641 139.713 67.3052 139.75C69.4739 139.86 71.6794 139.86 73.8113 139.786C74.2892 139.786 74.6568 140.116 74.6935 140.592C74.7303 141.068 74.3627 141.434 73.8849 141.471C72.9292 141.471 71.9735 141.507 70.981 141.507ZM84.4711 140.189C84.0668 140.189 83.736 139.896 83.6625 139.53C83.5889 139.091 83.883 138.651 84.3241 138.542C86.3825 138.139 88.441 137.626 90.4627 137.04L90.6465 137.004C91.0876 136.857 91.5654 137.114 91.6757 137.553C91.8227 137.992 91.5654 138.468 91.1243 138.578L90.9405 138.615C88.8453 139.201 86.7501 139.713 84.6549 140.153C84.5814 140.189 84.5079 140.189 84.4711 140.189ZM100.828 134.88C100.498 134.88 100.204 134.697 100.056 134.404C99.8727 134.002 100.056 133.489 100.461 133.306C102.409 132.391 104.357 131.365 106.195 130.304C106.599 130.084 107.114 130.194 107.335 130.597C107.555 130.999 107.445 131.512 107.04 131.732C105.129 132.83 103.144 133.892 101.159 134.807C101.086 134.844 100.975 134.88 100.828 134.88ZM115.421 125.727C115.164 125.727 114.943 125.617 114.76 125.434C114.466 125.068 114.539 124.556 114.87 124.263C116.524 122.908 118.178 121.443 119.685 119.942C120.016 119.613 120.531 119.613 120.861 119.942C121.192 120.272 121.192 120.784 120.861 121.114C119.281 122.652 117.627 124.153 115.899 125.544C115.789 125.691 115.605 125.727 115.421 125.727ZM127.331 113.316C127.147 113.316 127 113.279 126.816 113.169C126.449 112.913 126.375 112.364 126.632 111.997C127.919 110.277 129.132 108.483 130.271 106.615C130.529 106.213 131.007 106.103 131.411 106.323C131.815 106.579 131.926 107.055 131.705 107.458C130.566 109.325 129.316 111.192 127.992 112.949C127.845 113.206 127.588 113.316 127.331 113.316ZM135.859 98.4142C135.748 98.4142 135.638 98.3776 135.528 98.341C135.087 98.1579 134.903 97.682 135.087 97.2426C135.932 95.2655 136.667 93.2152 137.292 91.1649C137.439 90.7256 137.88 90.4693 138.321 90.6158C138.763 90.7622 139.02 91.2016 138.873 91.6409C138.211 93.7278 137.439 95.8514 136.594 97.8651C136.484 98.1946 136.153 98.4142 135.859 98.4142ZM140.49 81.8654C140.453 81.8654 140.417 81.8654 140.38 81.8654C139.939 81.7921 139.608 81.3894 139.681 80.9134C140.012 78.7899 140.233 76.6298 140.343 74.4696C140.38 74.0303 140.784 73.6642 141.225 73.7008C141.703 73.7374 142.034 74.1035 141.997 74.5795C141.887 76.7762 141.666 79.0096 141.336 81.1697C141.225 81.5724 140.894 81.8654 140.49 81.8654ZM140.894 64.6941C140.453 64.6941 140.123 64.3646 140.049 63.9618C139.829 61.8383 139.498 59.6782 139.093 57.5546C139.02 57.1153 139.314 56.6759 139.755 56.5661C140.196 56.4929 140.637 56.7858 140.747 57.2252C141.189 59.3853 141.483 61.582 141.703 63.7788C141.74 64.2181 141.409 64.6575 140.968 64.6941C140.931 64.6941 140.931 64.6941 140.894 64.6941ZM137.108 47.9622C136.778 47.9622 136.447 47.7425 136.337 47.413C135.601 45.3993 134.793 43.3856 133.874 41.4085C133.69 41.0058 133.874 40.4932 134.278 40.3101C134.682 40.1271 135.197 40.3101 135.381 40.7129C136.3 42.6899 137.182 44.7769 137.917 46.8638C138.064 47.3031 137.844 47.7791 137.402 47.9256C137.292 47.9256 137.182 47.9622 137.108 47.9622Z" fill="#F58220"/>
<path d="M56.6446 140.011C56.5711 140.011 56.5343 140.011 56.4608 140.011C55.3581 139.791 54.2554 139.534 53.1894 139.24C52.7483 139.13 52.491 138.653 52.6013 138.213C52.7115 137.773 53.1894 137.516 53.6305 137.626C54.6965 137.92 55.7624 138.14 56.8284 138.396C57.2695 138.507 57.5636 138.947 57.49 139.387C57.3798 139.754 57.0122 140.011 56.6446 140.011Z" fill="#F58220"/>
<path d="M11.3213 108.346C11.0272 108.346 10.7699 108.199 10.6229 107.942C10.0348 106.988 9.44665 105.998 8.93204 105.044C8.71149 104.64 8.85852 104.127 9.26286 103.906C9.66719 103.686 10.1818 103.833 10.4024 104.237C10.917 105.191 11.5051 106.145 12.0565 107.062C12.3138 107.465 12.1667 107.979 11.7992 108.199C11.6154 108.309 11.4683 108.346 11.3213 108.346Z" fill="#F58220"/>
<path d="M5.21962 95.9248C4.8888 95.9248 4.55798 95.7051 4.44771 95.3756C3.85958 93.8013 3.30821 92.1537 2.83036 90.5061C2.68333 90.0668 2.57305 89.5908 2.46278 89.1515C2.35251 88.7121 2.60981 88.2361 3.05091 88.1263C3.492 88.0165 3.96985 88.2728 4.08013 88.7121C4.1904 89.1515 4.33743 89.5908 4.44771 90.0302C4.92556 91.6411 5.44017 93.2155 6.0283 94.7898C6.17533 95.2291 5.95478 95.7051 5.55044 95.8516C5.44017 95.9248 5.3299 95.9248 5.21962 95.9248ZM1.28653 79.5224C0.88219 79.5224 0.51461 79.1928 0.441094 78.7901C0.183788 76.63 0.0367579 74.4332 0 72.2731C0 71.7971 0.367578 71.431 0.808673 71.431C1.24977 71.431 1.65411 71.7971 1.65411 72.2365C1.69086 74.36 1.8379 76.4835 2.0952 78.607C2.13196 79.0464 1.83789 79.4857 1.36004 79.5224C1.36004 79.5224 1.32329 79.5224 1.28653 79.5224ZM1.3968 62.6074C1.36004 62.6074 1.32329 62.6074 1.28653 62.6074C0.845432 62.5342 0.514611 62.1314 0.551369 61.6921C0.845432 59.5319 1.21301 57.3718 1.69086 55.2483C1.80113 54.8089 2.24223 54.516 2.68333 54.6258C3.12442 54.7357 3.41849 55.1751 3.30821 55.6144C2.83036 57.6647 2.46278 59.7882 2.20548 61.8751C2.16872 62.3145 1.80114 62.6074 1.3968 62.6074ZM5.5872 46.2416C5.47693 46.2416 5.36665 46.2416 5.29314 46.1684C4.85204 45.9853 4.66825 45.5093 4.81528 45.1066C5.5872 43.0929 6.50615 41.0792 7.46186 39.1388C7.68241 38.736 8.16026 38.553 8.5646 38.7727C8.96893 38.9923 9.15272 39.4683 8.93218 39.871C7.97647 41.7749 7.09428 43.7154 6.35912 45.6924C6.24885 46.0586 5.91802 46.2416 5.5872 46.2416ZM13.6004 31.3769C13.4534 31.3769 13.2696 31.3403 13.1226 31.2305C12.755 30.9742 12.6447 30.4616 12.902 30.0589C14.1518 28.3015 15.5118 26.5441 16.9086 24.8965C17.2027 24.5304 17.7173 24.4938 18.0849 24.7867C18.4525 25.0796 18.4892 25.5922 18.1952 25.9583C16.8351 27.5692 15.5118 29.2534 14.2988 31.0108C14.115 31.2305 13.8577 31.3769 13.6004 31.3769ZM24.9219 18.8188C24.7013 18.8188 24.444 18.709 24.297 18.5259C24.0029 18.1964 24.0397 17.6472 24.3705 17.3543C26.0246 15.9265 27.7522 14.5718 29.5166 13.2903C29.8842 13.034 30.3988 13.1073 30.6929 13.4734C30.9502 13.8395 30.8767 14.3521 30.5091 14.645C28.7815 15.8898 27.0906 17.2079 25.51 18.5992C25.3262 18.7456 25.1424 18.8188 24.9219 18.8188ZM38.9634 9.33619C38.6693 9.33619 38.3753 9.15312 38.2282 8.89684C38.0077 8.4941 38.1915 7.98153 38.5958 7.76186C40.544 6.77332 42.5289 5.858 44.5506 5.05252C44.9917 4.86946 45.4695 5.08913 45.6166 5.52848C45.8004 5.96783 45.5798 6.4438 45.1387 6.59025C43.1538 7.39573 41.2056 8.27443 39.331 9.22636C39.2207 9.33619 39.1104 9.33619 38.9634 9.33619ZM54.8796 3.51479C54.512 3.51479 54.1444 3.25852 54.0709 2.8924C53.9606 2.45305 54.2547 2.01369 54.6958 1.90385C56.8277 1.39128 58.9965 0.988547 61.1284 0.695647C61.5695 0.622422 62.0106 0.951921 62.0841 1.39127C62.1576 1.83062 61.8268 2.26998 61.3857 2.34321C59.2905 2.63611 57.1586 3.03883 55.1001 3.51479C55.0266 3.51479 54.9531 3.51479 54.8796 3.51479ZM78.2209 2.01369C78.1841 2.01369 78.1473 2.01369 78.1473 2.01369C76.0154 1.79401 73.8834 1.68418 71.7515 1.64756C71.2736 1.64756 70.906 1.28144 70.9428 0.80548C70.9428 0.36613 71.3104 0 71.7882 0C73.9569 0.0366125 76.1624 0.14645 78.3311 0.366125C78.7722 0.402738 79.1398 0.805475 79.0663 1.28144C78.9928 1.68418 78.6252 2.01369 78.2209 2.01369Z" fill="#F58220"/>
<path d="M91.785 4.7654C91.7115 4.7654 91.6012 4.76541 91.5277 4.72872C90.4985 4.39851 89.4325 4.10498 88.3665 3.81145C87.9254 3.70138 87.6681 3.22439 87.7784 2.7841C87.8887 2.34381 88.3665 2.08698 88.8076 2.19705C89.9104 2.49058 90.9763 2.78411 92.0423 3.11432C92.4834 3.26108 92.7407 3.70137 92.5937 4.14166C92.4834 4.54526 92.1526 4.7654 91.785 4.7654Z" fill="#F58220"/>
<defs>
<clipPath id="clip0_541_2858">
<rect width="81" height="71" fill="white" transform="translate(30 35)"/>
</clipPath>
</defs>
</svg>
