<svg width="142" height="142" viewBox="0 0 142 142" fill="none" xmlns="http://www.w3.org/2000/svg">
<path d="M129.353 32.6307C129.096 32.6307 128.802 32.4839 128.655 32.2638C128.066 31.3465 127.405 30.466 126.743 29.5854C126.486 29.2185 126.559 28.7048 126.927 28.4113C127.295 28.1545 127.809 28.2279 128.103 28.5948C128.765 29.512 129.427 30.4293 130.051 31.3465C130.309 31.7134 130.198 32.2638 129.831 32.4839C129.684 32.594 129.5 32.6307 129.353 32.6307Z" fill="#F58220"/>
<path d="M70.9807 141.507C69.7309 141.507 68.4444 141.471 67.1946 141.398C66.7168 141.361 66.3859 140.995 66.4227 140.519C66.4595 140.043 66.8638 139.713 67.3049 139.75C69.4736 139.86 71.6791 139.86 73.811 139.787C74.2889 139.787 74.6565 140.116 74.6932 140.592C74.73 141.068 74.3624 141.434 73.8846 141.471C72.9288 141.471 71.9731 141.507 70.9807 141.507ZM84.4708 140.189C84.0665 140.189 83.7357 139.896 83.6622 139.53C83.5886 139.091 83.8827 138.652 84.3238 138.542C86.3822 138.139 88.4407 137.626 90.4624 137.041L90.6462 137.004C91.0872 136.858 91.5651 137.114 91.6754 137.553C91.8224 137.993 91.5651 138.469 91.124 138.578L90.9402 138.615C88.845 139.201 86.7498 139.713 84.6546 140.153C84.5811 140.189 84.5076 140.189 84.4708 140.189ZM100.828 134.881C100.497 134.881 100.203 134.697 100.056 134.405C99.8724 134.002 100.056 133.489 100.461 133.306C102.409 132.391 104.357 131.366 106.195 130.304C106.599 130.084 107.114 130.194 107.334 130.597C107.555 131 107.445 131.512 107.04 131.732C105.129 132.83 103.144 133.892 101.159 134.807C101.085 134.844 100.975 134.881 100.828 134.881ZM115.421 125.727C115.164 125.727 114.943 125.618 114.759 125.434C114.465 125.068 114.539 124.556 114.87 124.263C116.524 122.908 118.178 121.444 119.685 119.943C120.016 119.613 120.53 119.613 120.861 119.943C121.192 120.272 121.192 120.785 120.861 121.114C119.281 122.652 117.626 124.153 115.899 125.544C115.789 125.691 115.605 125.727 115.421 125.727ZM127.331 113.316C127.147 113.316 127 113.279 126.816 113.169C126.448 112.913 126.375 112.364 126.632 111.998C127.919 110.277 129.132 108.483 130.271 106.616C130.528 106.213 131.006 106.103 131.411 106.323C131.815 106.579 131.925 107.055 131.705 107.458C130.565 109.325 129.315 111.192 127.992 112.95C127.845 113.206 127.588 113.316 127.331 113.316ZM135.858 98.4145C135.748 98.4145 135.638 98.3778 135.528 98.3412C135.086 98.1582 134.903 97.6822 135.086 97.2429C135.932 95.2658 136.667 93.2155 137.292 91.1652C137.439 90.7258 137.88 90.4695 138.321 90.616C138.762 90.7624 139.02 91.2018 138.873 91.6412C138.211 93.7281 137.439 95.8516 136.594 97.8653C136.483 98.1948 136.152 98.4145 135.858 98.4145ZM140.49 81.8656C140.453 81.8656 140.416 81.8656 140.38 81.8656C139.938 81.7924 139.608 81.3896 139.681 80.9137C140.012 78.7902 140.233 76.63 140.343 74.4699C140.38 74.0305 140.784 73.6644 141.225 73.701C141.703 73.7376 142.034 74.1037 141.997 74.5797C141.887 76.7764 141.666 79.0098 141.335 81.1699C141.225 81.5727 140.894 81.8656 140.49 81.8656ZM140.894 64.6943C140.453 64.6943 140.122 64.3648 140.049 63.9621C139.828 61.8385 139.497 59.6784 139.093 57.5549C139.02 57.1155 139.314 56.6762 139.755 56.5664C140.196 56.4931 140.637 56.786 140.747 57.2254C141.188 59.3855 141.482 61.5823 141.703 63.779C141.74 64.2184 141.409 64.6577 140.968 64.6943C140.931 64.6943 140.931 64.6943 140.894 64.6943ZM137.108 47.9624C136.777 47.9624 136.446 47.7427 136.336 47.4132C135.601 45.3995 134.792 43.3858 133.873 41.4088C133.69 41.006 133.873 40.4934 134.278 40.3104C134.682 40.1273 135.197 40.3104 135.381 40.7131C136.299 42.6902 137.182 44.7771 137.917 46.864C138.064 47.3034 137.843 47.7794 137.402 47.9258C137.292 47.9258 137.182 47.9624 137.108 47.9624Z" fill="#F58220"/>
<path d="M56.6445 140.011C56.571 140.011 56.5342 140.011 56.4607 140.011C55.358 139.791 54.2552 139.534 53.1893 139.241C52.7482 139.131 52.4909 138.654 52.6012 138.213C52.7114 137.773 53.1893 137.516 53.6304 137.626C54.6963 137.92 55.7623 138.14 56.8283 138.397C57.2694 138.507 57.5634 138.947 57.4899 139.387C57.3797 139.754 57.0121 140.011 56.6445 140.011Z" fill="#F58220"/>
<path d="M11.3213 108.346C11.0272 108.346 10.7699 108.199 10.6229 107.942C10.0348 106.988 9.44665 105.998 8.93204 105.044C8.71149 104.64 8.85852 104.127 9.26286 103.906C9.66719 103.686 10.1818 103.833 10.4024 104.237C10.917 105.191 11.5051 106.145 12.0565 107.062C12.3138 107.465 12.1667 107.979 11.7992 108.199C11.6154 108.309 11.4683 108.346 11.3213 108.346Z" fill="#F58220"/>
<path d="M5.21962 95.9248C4.8888 95.9248 4.55798 95.7051 4.44771 95.3756C3.85958 93.8013 3.30821 92.1537 2.83036 90.5061C2.68333 90.0668 2.57305 89.5908 2.46278 89.1515C2.35251 88.7121 2.60981 88.2361 3.05091 88.1263C3.492 88.0165 3.96985 88.2728 4.08013 88.7121C4.1904 89.1515 4.33743 89.5908 4.44771 90.0302C4.92556 91.6411 5.44017 93.2155 6.0283 94.7898C6.17533 95.2291 5.95478 95.7051 5.55044 95.8516C5.44017 95.9248 5.3299 95.9248 5.21962 95.9248ZM1.28653 79.5224C0.88219 79.5224 0.51461 79.1928 0.441094 78.7901C0.183788 76.63 0.0367579 74.4332 0 72.2731C0 71.7971 0.367578 71.431 0.808673 71.431C1.24977 71.431 1.65411 71.7971 1.65411 72.2365C1.69086 74.36 1.8379 76.4835 2.0952 78.607C2.13196 79.0464 1.83789 79.4857 1.36004 79.5224C1.36004 79.5224 1.32329 79.5224 1.28653 79.5224ZM1.3968 62.6074C1.36004 62.6074 1.32329 62.6074 1.28653 62.6074C0.845432 62.5342 0.514611 62.1314 0.551369 61.6921C0.845432 59.5319 1.21301 57.3718 1.69086 55.2483C1.80113 54.8089 2.24223 54.516 2.68333 54.6258C3.12442 54.7357 3.41849 55.1751 3.30821 55.6144C2.83036 57.6647 2.46278 59.7882 2.20548 61.8751C2.16872 62.3145 1.80114 62.6074 1.3968 62.6074ZM5.5872 46.2416C5.47693 46.2416 5.36665 46.2416 5.29314 46.1684C4.85204 45.9853 4.66825 45.5093 4.81528 45.1066C5.5872 43.0929 6.50615 41.0792 7.46186 39.1388C7.68241 38.736 8.16026 38.553 8.5646 38.7727C8.96893 38.9923 9.15272 39.4683 8.93218 39.871C7.97647 41.7749 7.09428 43.7154 6.35912 45.6924C6.24885 46.0586 5.91802 46.2416 5.5872 46.2416ZM13.6004 31.3769C13.4534 31.3769 13.2696 31.3403 13.1226 31.2305C12.755 30.9742 12.6447 30.4616 12.902 30.0589C14.1518 28.3015 15.5118 26.5441 16.9086 24.8965C17.2027 24.5304 17.7173 24.4938 18.0849 24.7867C18.4525 25.0796 18.4892 25.5922 18.1952 25.9583C16.8351 27.5692 15.5118 29.2534 14.2988 31.0108C14.115 31.2305 13.8577 31.3769 13.6004 31.3769ZM24.9219 18.8188C24.7013 18.8188 24.444 18.709 24.297 18.5259C24.0029 18.1964 24.0397 17.6472 24.3705 17.3543C26.0246 15.9265 27.7522 14.5718 29.5166 13.2903C29.8842 13.034 30.3988 13.1073 30.6929 13.4734C30.9502 13.8395 30.8767 14.3521 30.5091 14.645C28.7815 15.8898 27.0906 17.2079 25.51 18.5992C25.3262 18.7456 25.1424 18.8188 24.9219 18.8188ZM38.9634 9.33619C38.6693 9.33619 38.3753 9.15312 38.2282 8.89684C38.0077 8.4941 38.1915 7.98153 38.5958 7.76186C40.544 6.77332 42.5289 5.858 44.5506 5.05252C44.9917 4.86946 45.4695 5.08913 45.6166 5.52848C45.8004 5.96783 45.5798 6.4438 45.1387 6.59025C43.1538 7.39573 41.2056 8.27443 39.331 9.22636C39.2207 9.33619 39.1104 9.33619 38.9634 9.33619ZM54.8796 3.51479C54.512 3.51479 54.1444 3.25852 54.0709 2.8924C53.9606 2.45305 54.2547 2.01369 54.6958 1.90385C56.8277 1.39128 58.9965 0.988547 61.1284 0.695647C61.5695 0.622422 62.0106 0.951921 62.0841 1.39127C62.1576 1.83062 61.8268 2.26998 61.3857 2.34321C59.2905 2.63611 57.1586 3.03883 55.1001 3.51479C55.0266 3.51479 54.9531 3.51479 54.8796 3.51479ZM78.2209 2.01369C78.1841 2.01369 78.1473 2.01369 78.1473 2.01369C76.0154 1.79401 73.8834 1.68418 71.7515 1.64756C71.2736 1.64756 70.906 1.28144 70.9428 0.80548C70.9428 0.36613 71.3104 0 71.7882 0C73.9569 0.0366125 76.1624 0.14645 78.3311 0.366125C78.7722 0.402738 79.1398 0.805475 79.0663 1.28144C78.9928 1.68418 78.6252 2.01369 78.2209 2.01369Z" fill="#F58220"/>
<path d="M91.785 4.76565C91.7115 4.76565 91.6012 4.76566 91.5277 4.72897C90.4985 4.39875 89.4325 4.10522 88.3665 3.8117C87.9254 3.70163 87.6681 3.22463 87.7784 2.78434C87.8887 2.34405 88.3665 2.08723 88.8076 2.1973C89.9104 2.49082 90.9763 2.78435 92.0423 3.11457C92.4834 3.26133 92.7407 3.70161 92.5937 4.1419C92.4834 4.5455 92.1526 4.76565 91.785 4.76565Z" fill="#F58220"/>
<path fill-rule="evenodd" clip-rule="evenodd" d="M104.197 63.381L108.754 64.9701C108.971 65.0454 109.158 65.1849 109.291 65.3695C109.424 65.554 109.495 65.7745 109.495 66.0006V84.7002C109.495 84.9263 109.424 85.1468 109.291 85.3314C109.158 85.5159 108.971 85.6555 108.754 85.7307L104.196 87.3199V88.3797C104.196 88.6697 104.078 88.9479 103.87 89.153C103.662 89.3581 103.379 89.4733 103.084 89.4733H98.9638V96.0504C98.9616 97.9971 98.1749 99.8635 96.7761 101.24C95.3773 102.617 93.4808 103.391 91.5026 103.393H77.5784C77.3367 104.216 76.8301 104.94 76.1347 105.455C75.4393 105.971 74.5927 106.25 73.7221 106.251H69.775C68.7099 106.251 67.6885 105.835 66.9354 105.094C66.1823 104.353 65.7592 103.348 65.7592 102.299C65.7592 101.251 66.1823 100.246 66.9354 99.5051C67.6885 98.7639 68.7099 98.3476 69.775 98.3476H73.7221C74.5927 98.3489 75.4393 98.6283 76.1347 99.1438C76.8301 99.6592 77.3367 100.383 77.5784 101.206H91.5007C92.8896 101.204 94.2213 100.661 95.2034 99.6942C96.1855 98.7277 96.7379 97.4173 96.7394 96.0504V89.4758H95.7939C94.6576 89.4745 93.5681 89.0296 92.7646 88.2389C91.9611 87.4481 91.509 86.376 91.5077 85.2577V65.4482C91.5097 64.4812 91.8487 63.5441 92.4681 62.7934C93.0876 62.0428 93.95 61.524 94.9113 61.3238V60.5401C94.9122 55.0529 92.901 49.7497 89.2471 45.6049C89.0534 45.3859 88.9561 45.1001 88.9765 44.8105C88.997 44.5208 89.1335 44.251 89.356 44.0604C89.5786 43.8698 89.8689 43.7741 90.1633 43.7942C90.4576 43.8143 90.7317 43.9486 90.9254 44.1676C94.9309 48.7099 97.1361 54.5222 97.1357 60.5364V61.2275H98.5689V60.5364C98.5689 53.5362 95.7432 46.8228 90.7134 41.8729C85.6836 36.9231 78.8617 34.1422 71.7485 34.1422C64.6353 34.1422 57.8135 36.9231 52.7837 41.8729C47.7539 46.8228 44.9282 53.5362 44.9282 60.5364V61.2275H46.3607V60.5364C46.3637 56.7295 47.2501 52.9735 48.9521 49.5548C50.6541 46.1361 53.127 43.1451 56.182 40.8098C59.2371 38.4745 62.7936 36.8565 66.5806 36.0793C70.3675 35.3021 74.2848 35.3861 78.0337 36.325C78.1751 36.3605 78.3079 36.4231 78.4247 36.5091C78.5415 36.5951 78.6399 36.7029 78.7144 36.8264C78.7888 36.9498 78.8378 37.0865 78.8586 37.2286C78.8793 37.3707 78.8715 37.5154 78.8354 37.6545C78.7626 37.9355 78.5793 38.1764 78.326 38.3243C78.2005 38.3976 78.0616 38.4458 77.9172 38.4663C77.7729 38.4867 77.6258 38.479 77.4844 38.4435C74.0636 37.5875 70.4894 37.5115 67.0342 38.221C63.579 38.9306 60.3339 40.407 57.5465 42.5379C54.759 44.6687 52.5026 47.3977 50.9493 50.5168C49.3959 53.6359 48.5867 57.0628 48.5832 60.5364V61.32C49.5445 61.5204 50.4068 62.0392 51.0262 62.7898C51.6457 63.5404 51.9847 64.4774 51.9868 65.4444V85.2539C51.9855 86.3722 51.5334 87.4443 50.7299 88.2351C49.9264 89.0259 48.8369 89.4707 47.7006 89.472H40.4115C40.2655 89.4721 40.121 89.4439 39.9861 89.389C39.8512 89.334 39.7287 89.2535 39.6255 89.1519C39.5223 89.0503 39.4404 88.9298 39.3846 88.797C39.3288 88.6643 39.3001 88.5221 39.3002 88.3784V87.3199L34.7428 85.7307C34.5263 85.6555 34.3387 85.5159 34.2061 85.3314C34.0735 85.1468 34.0023 84.9263 34.0024 84.7002V80.814C34.0024 80.5239 34.1195 80.2458 34.3279 80.0407C34.5363 79.8356 34.819 79.7204 35.1137 79.7204C35.4084 79.7204 35.6911 79.8356 35.8995 80.0407C36.1079 80.2458 36.2249 80.5239 36.2249 80.814V83.9279L39.3002 85.0002V65.7006L36.2249 66.773V74.963C36.2249 75.253 36.1079 75.5312 35.8995 75.7363C35.6911 75.9413 35.4084 76.0566 35.1137 76.0566C34.819 76.0566 34.5363 75.9413 34.3279 75.7363C34.1195 75.5312 34.0024 75.253 34.0024 74.963V66.0006C34.0023 65.7745 34.0735 65.554 34.2061 65.3695C34.3387 65.1849 34.5263 65.0454 34.7428 64.9701L39.3015 63.3797V62.3211C39.3014 62.1775 39.3301 62.0352 39.3859 61.9025C39.4417 61.7698 39.5236 61.6492 39.6268 61.5477C39.73 61.4461 39.8525 61.3655 39.9874 61.3106C40.1222 61.2557 40.2668 61.2275 40.4127 61.2275H42.707V60.5364C42.707 52.9562 45.7668 45.6864 51.2134 40.3264C56.66 34.9663 64.0472 31.9551 71.7498 31.9551C79.4524 31.9551 86.8396 34.9663 92.2862 40.3264C97.7328 45.6864 100.793 52.9562 100.793 60.5364V61.2288H103.086C103.38 61.2288 103.663 61.344 103.871 61.5491C104.08 61.7542 104.197 62.0323 104.197 62.3224V63.381ZM49.763 85.2564V65.4469H49.7643C49.764 64.908 49.5463 64.3913 49.1591 64.0103C48.7719 63.6293 48.2469 63.415 47.6993 63.4147H41.5227V87.2874H47.6993C48.2464 87.2867 48.771 87.0725 49.1579 86.6918C49.5447 86.311 49.7624 85.7948 49.763 85.2564ZM69.775 104.06H73.7208H73.7221C74.1977 104.06 74.6538 103.875 74.9901 103.544C75.3264 103.213 75.5153 102.764 75.5153 102.296C75.5153 101.828 75.3264 101.379 74.9901 101.048C74.6538 100.717 74.1977 100.531 73.7221 100.531H69.775C69.2994 100.531 68.8432 100.717 68.507 101.048C68.1707 101.379 67.9817 101.828 67.9817 102.296C67.9817 102.764 68.1707 103.213 68.507 103.544C68.8432 103.875 69.2994 104.06 69.775 104.06ZM95.7958 87.2861H101.974V63.4147H95.7958C95.2487 63.4154 94.7242 63.6296 94.3373 64.0103C93.9504 64.391 93.7328 64.9072 93.7321 65.4457V85.2552C93.7328 85.7936 93.9504 86.3098 94.3373 86.6905C94.7242 87.0713 95.2487 87.2854 95.7958 87.2861ZM104.197 85.0002L107.273 83.9291V66.773L104.197 65.7006V85.0002ZM82.4565 40.2178C82.5483 40.3294 82.6616 40.4221 82.7898 40.4907C83.586 40.9161 84.3559 41.3875 85.0955 41.9023C85.3365 42.0635 85.6322 42.1251 85.9189 42.0739C86.2057 42.0227 86.4605 41.8628 86.6286 41.6286C86.7968 41.3943 86.8647 41.1045 86.8179 40.8214C86.771 40.5384 86.6132 40.2847 86.3782 40.1151C85.567 39.5514 84.7229 39.0349 83.8503 38.5685C83.722 38.4999 83.5813 38.4569 83.4362 38.4419C83.291 38.4269 83.1443 38.4402 83.0044 38.481C82.8645 38.5218 82.7341 38.5893 82.6207 38.6797C82.5073 38.7701 82.4131 38.8816 82.3434 39.0078C82.2738 39.134 82.2301 39.2725 82.2149 39.4153C82.1996 39.5581 82.2131 39.7025 82.2546 39.8402C82.296 39.9779 82.3646 40.1062 82.4565 40.2178Z" fill="#F58220"/>
</svg>
