<svg width="142" height="142" viewBox="0 0 142 142" fill="none" xmlns="http://www.w3.org/2000/svg">
<g clip-path="url(#clip0_541_2861)">
<path d="M88.3438 103.664H79.6719C78.4736 103.664 77.5039 102.694 77.5039 101.496C77.5039 100.298 78.4736 99.3281 79.6719 99.3281H88.3438C91.9301 99.3281 94.8477 96.4106 94.8477 92.8242V88.4883C94.8477 87.29 95.8173 86.3203 97.0156 86.3203C98.2139 86.3203 99.1836 87.29 99.1836 88.4883V92.8242C99.1836 98.801 94.3206 103.664 88.3438 103.664Z" fill="#F58220"/>
<path d="M34 75.3358C34 81.2824 35.923 87.0061 41.806 87.0061C43.4341 87.0061 44.9203 86.5361 45.8095 86.0916V64.7246C44.9128 64.2769 43.4114 63.8011 41.7686 63.8074C35.9041 63.8306 34 69.4249 34 75.3358Z" fill="#F58220"/>
<path d="M71 34C55.46 34 42.6719 46.7881 42.6719 62.3281C42.6719 63.5264 43.6415 64.4961 44.8398 64.4961C46.0382 64.4961 47.0078 63.5264 47.0078 62.3281C47.0078 49.1785 57.8504 38.3359 71 38.3359C84.1496 38.3359 94.8477 49.1785 94.8477 62.3281C94.8477 63.5264 95.8173 64.4961 97.0156 64.4961C98.2139 64.4961 99.1836 63.5264 99.1836 62.3281C99.1836 46.7881 86.54 34 71 34Z" fill="#F58220"/>
<path d="M94.8477 62.3281C94.8477 63.5264 95.8173 64.4961 97.0156 64.4961C98.2139 64.4961 99.1836 63.5264 99.1836 62.3281C99.1836 46.7881 86.54 34 71 34V38.3359C84.1496 38.3359 94.8477 49.1785 94.8477 62.3281Z" fill="#EC7F02"/>
<path d="M75.3359 94.9922H71C67.4136 94.9922 64.4961 97.9097 64.4961 101.496C64.4961 105.082 67.4136 108 71 108H75.3359C78.9223 108 81.8398 105.082 81.8398 101.496C81.8398 97.9097 78.9223 94.9922 75.3359 94.9922Z" fill="#C56600"/>
<path d="M81.8398 101.496C81.8398 97.9097 78.9223 94.9922 75.3359 94.9922H71V108H75.3359C78.9223 108 81.8398 105.082 81.8398 101.496Z" fill="#F58220"/>
<path d="M44.8398 90.6562C43.6415 90.6562 42.6719 89.6866 42.6719 88.4883V62.3281C42.6719 61.1298 43.6415 60.1602 44.8398 60.1602C46.0382 60.1602 47.0078 61.1298 47.0078 62.3281V88.4883C47.0078 89.6866 46.0382 90.6562 44.8398 90.6562Z" fill="black"/>
<path d="M97.0156 90.6562C95.8173 90.6562 94.8477 89.6866 94.8477 88.4883V62.3281C94.8477 61.1298 95.8173 60.1602 97.0156 60.1602C98.2139 60.1602 99.1836 61.1298 99.1836 62.3281V88.4883C99.1836 89.6866 98.2139 90.6562 97.0156 90.6562Z" fill="black"/>
<path d="M100.087 63.8099C98.443 63.8031 96.9416 64.2779 96.046 64.7246V86.0915C96.9351 86.5361 98.4215 87.0061 100.049 87.0061C105.942 87.0061 108 81.2661 108 75.3358C108 69.429 105.956 63.834 100.087 63.8099Z" fill="#F58220"/>
<path d="M49.1758 90.6562H44.8398C43.6415 90.6562 42.6719 89.6866 42.6719 88.4883V62.3281C42.6719 61.1298 43.6415 60.1602 44.8398 60.1602H49.1758C50.3741 60.1602 51.3438 61.1298 51.3438 62.3281V88.4883C51.3438 89.6866 50.3741 90.6562 49.1758 90.6562Z" fill="#C56600"/>
<path d="M97.0156 90.6562H92.6797C91.4814 90.6562 90.5117 89.6866 90.5117 88.4883V62.3281C90.5117 61.1298 91.4814 60.1602 92.6797 60.1602H97.0156C98.2139 60.1602 99.1836 61.1298 99.1836 62.3281V88.4883C99.1836 89.6866 98.2139 90.6562 97.0156 90.6562Z" fill="#C56600"/>
</g>
<path d="M129.353 32.6304C129.096 32.6304 128.802 32.4837 128.655 32.2635C128.067 31.3463 127.405 30.4657 126.743 29.5852C126.486 29.2183 126.56 28.7046 126.927 28.4111C127.295 28.1543 127.809 28.2276 128.103 28.5945C128.765 29.5118 129.427 30.429 130.052 31.3463C130.309 31.7132 130.199 32.2635 129.831 32.4837C129.684 32.5937 129.5 32.6304 129.353 32.6304Z" fill="#F58220"/>
<path d="M70.981 141.507C69.7312 141.507 68.4447 141.471 67.1949 141.397C66.717 141.361 66.3862 140.995 66.423 140.519C66.4597 140.043 66.8641 139.713 67.3052 139.75C69.4739 139.86 71.6794 139.86 73.8113 139.786C74.2892 139.786 74.6567 140.116 74.6935 140.592C74.7303 141.068 74.3627 141.434 73.8848 141.471C72.9291 141.471 71.9734 141.507 70.981 141.507ZM84.4711 140.189C84.0668 140.189 83.7359 139.896 83.6624 139.53C83.5889 139.091 83.883 138.651 84.3241 138.542C86.3825 138.139 88.441 137.626 90.4626 137.04L90.6464 137.004C91.0875 136.857 91.5654 137.114 91.6757 137.553C91.8227 137.992 91.5654 138.468 91.1243 138.578L90.9405 138.615C88.8453 139.201 86.7501 139.713 84.6549 140.153C84.5814 140.189 84.5079 140.189 84.4711 140.189ZM100.828 134.88C100.498 134.88 100.203 134.697 100.056 134.404C99.8727 134.002 100.056 133.489 100.461 133.306C102.409 132.391 104.357 131.365 106.195 130.304C106.599 130.084 107.114 130.194 107.335 130.597C107.555 130.999 107.445 131.512 107.04 131.732C105.129 132.83 103.144 133.892 101.159 134.807C101.086 134.844 100.975 134.88 100.828 134.88ZM115.421 125.727C115.164 125.727 114.943 125.617 114.76 125.434C114.466 125.068 114.539 124.556 114.87 124.263C116.524 122.908 118.178 121.443 119.685 119.942C120.016 119.613 120.531 119.613 120.861 119.942C121.192 120.272 121.192 120.784 120.861 121.114C119.281 122.652 117.627 124.153 115.899 125.544C115.789 125.691 115.605 125.727 115.421 125.727ZM127.331 113.316C127.147 113.316 127 113.279 126.816 113.169C126.449 112.913 126.375 112.364 126.632 111.997C127.919 110.277 129.132 108.483 130.271 106.615C130.529 106.213 131.007 106.103 131.411 106.323C131.815 106.579 131.926 107.055 131.705 107.458C130.565 109.325 129.316 111.192 127.992 112.949C127.845 113.206 127.588 113.316 127.331 113.316ZM135.859 98.4142C135.748 98.4142 135.638 98.3776 135.528 98.341C135.087 98.1579 134.903 97.682 135.087 97.2426C135.932 95.2655 136.667 93.2152 137.292 91.1649C137.439 90.7256 137.88 90.4693 138.321 90.6158C138.763 90.7622 139.02 91.2016 138.873 91.6409C138.211 93.7278 137.439 95.8514 136.594 97.8651C136.484 98.1946 136.153 98.4142 135.859 98.4142ZM140.49 81.8654C140.453 81.8654 140.417 81.8654 140.38 81.8654C139.939 81.7921 139.608 81.3894 139.681 80.9134C140.012 78.7899 140.233 76.6298 140.343 74.4696C140.38 74.0303 140.784 73.6642 141.225 73.7008C141.703 73.7374 142.034 74.1035 141.997 74.5795C141.887 76.7762 141.666 79.0096 141.336 81.1697C141.225 81.5724 140.894 81.8654 140.49 81.8654ZM140.894 64.6941C140.453 64.6941 140.123 64.3646 140.049 63.9618C139.828 61.8383 139.498 59.6782 139.093 57.5546C139.02 57.1153 139.314 56.6759 139.755 56.5661C140.196 56.4929 140.637 56.7858 140.747 57.2252C141.189 59.3853 141.483 61.582 141.703 63.7788C141.74 64.2181 141.409 64.6575 140.968 64.6941C140.931 64.6941 140.931 64.6941 140.894 64.6941ZM137.108 47.9622C136.778 47.9622 136.447 47.7425 136.336 47.413C135.601 45.3993 134.793 43.3856 133.874 41.4085C133.69 41.0058 133.874 40.4932 134.278 40.3101C134.682 40.1271 135.197 40.3101 135.381 40.7129C136.3 42.6899 137.182 44.7769 137.917 46.8638C138.064 47.3031 137.844 47.7791 137.402 47.9256C137.292 47.9256 137.182 47.9622 137.108 47.9622Z" fill="#F58220"/>
<path d="M56.6446 140.011C56.5711 140.011 56.5343 140.011 56.4608 140.011C55.3581 139.791 54.2553 139.534 53.1894 139.24C52.7483 139.13 52.491 138.653 52.6012 138.213C52.7115 137.773 53.1894 137.516 53.6305 137.626C54.6964 137.92 55.7624 138.14 56.8284 138.396C57.2695 138.507 57.5635 138.947 57.49 139.387C57.3797 139.754 57.0122 140.011 56.6446 140.011Z" fill="#F58220"/>
<path d="M11.3213 108.346C11.0272 108.346 10.7699 108.199 10.6229 107.942C10.0348 106.988 9.44665 105.998 8.93204 105.044C8.71149 104.64 8.85852 104.127 9.26286 103.906C9.66719 103.686 10.1818 103.833 10.4024 104.237C10.917 105.191 11.5051 106.145 12.0565 107.062C12.3138 107.465 12.1667 107.979 11.7992 108.199C11.6154 108.309 11.4683 108.346 11.3213 108.346Z" fill="#F58220"/>
<path d="M5.21962 95.9248C4.8888 95.9248 4.55798 95.7051 4.44771 95.3756C3.85958 93.8013 3.30821 92.1537 2.83036 90.5061C2.68333 90.0668 2.57305 89.5908 2.46278 89.1515C2.35251 88.7121 2.60981 88.2361 3.05091 88.1263C3.492 88.0165 3.96985 88.2728 4.08013 88.7121C4.1904 89.1515 4.33743 89.5908 4.44771 90.0302C4.92556 91.6411 5.44017 93.2155 6.0283 94.7898C6.17533 95.2291 5.95478 95.7051 5.55044 95.8516C5.44017 95.9248 5.3299 95.9248 5.21962 95.9248ZM1.28653 79.5224C0.88219 79.5224 0.51461 79.1928 0.441094 78.7901C0.183788 76.63 0.0367579 74.4332 0 72.2731C0 71.7971 0.367578 71.431 0.808673 71.431C1.24977 71.431 1.65411 71.7971 1.65411 72.2365C1.69086 74.36 1.8379 76.4835 2.0952 78.607C2.13196 79.0464 1.83789 79.4857 1.36004 79.5224C1.36004 79.5224 1.32329 79.5224 1.28653 79.5224ZM1.3968 62.6074C1.36004 62.6074 1.32329 62.6074 1.28653 62.6074C0.845432 62.5342 0.514611 62.1314 0.551369 61.6921C0.845432 59.5319 1.21301 57.3718 1.69086 55.2483C1.80113 54.8089 2.24223 54.516 2.68333 54.6258C3.12442 54.7357 3.41849 55.1751 3.30821 55.6144C2.83036 57.6647 2.46278 59.7882 2.20548 61.8751C2.16872 62.3145 1.80114 62.6074 1.3968 62.6074ZM5.5872 46.2416C5.47693 46.2416 5.36665 46.2416 5.29314 46.1684C4.85204 45.9853 4.66825 45.5093 4.81528 45.1066C5.5872 43.0929 6.50615 41.0792 7.46186 39.1388C7.68241 38.736 8.16026 38.553 8.5646 38.7727C8.96893 38.9923 9.15272 39.4683 8.93218 39.871C7.97647 41.7749 7.09428 43.7154 6.35912 45.6924C6.24885 46.0586 5.91802 46.2416 5.5872 46.2416ZM13.6004 31.3769C13.4534 31.3769 13.2696 31.3403 13.1226 31.2305C12.755 30.9742 12.6447 30.4616 12.902 30.0589C14.1518 28.3015 15.5118 26.5441 16.9086 24.8965C17.2027 24.5304 17.7173 24.4938 18.0849 24.7867C18.4525 25.0796 18.4892 25.5922 18.1952 25.9583C16.8351 27.5692 15.5118 29.2534 14.2988 31.0108C14.115 31.2305 13.8577 31.3769 13.6004 31.3769ZM24.9219 18.8188C24.7013 18.8188 24.444 18.709 24.297 18.5259C24.0029 18.1964 24.0397 17.6472 24.3705 17.3543C26.0246 15.9265 27.7522 14.5718 29.5166 13.2903C29.8842 13.034 30.3988 13.1073 30.6929 13.4734C30.9502 13.8395 30.8767 14.3521 30.5091 14.645C28.7815 15.8898 27.0906 17.2079 25.51 18.5992C25.3262 18.7456 25.1424 18.8188 24.9219 18.8188ZM38.9634 9.33619C38.6693 9.33619 38.3753 9.15312 38.2282 8.89684C38.0077 8.4941 38.1915 7.98153 38.5958 7.76186C40.544 6.77332 42.5289 5.858 44.5506 5.05252C44.9917 4.86946 45.4695 5.08913 45.6166 5.52848C45.8004 5.96783 45.5798 6.4438 45.1387 6.59025C43.1538 7.39573 41.2056 8.27443 39.331 9.22636C39.2207 9.33619 39.1104 9.33619 38.9634 9.33619ZM54.8796 3.51479C54.512 3.51479 54.1444 3.25852 54.0709 2.8924C53.9606 2.45305 54.2547 2.01369 54.6958 1.90385C56.8277 1.39128 58.9965 0.988547 61.1284 0.695647C61.5695 0.622422 62.0106 0.951921 62.0841 1.39127C62.1576 1.83062 61.8268 2.26998 61.3857 2.34321C59.2905 2.63611 57.1586 3.03883 55.1001 3.51479C55.0266 3.51479 54.9531 3.51479 54.8796 3.51479ZM78.2209 2.01369C78.1841 2.01369 78.1473 2.01369 78.1473 2.01369C76.0154 1.79401 73.8834 1.68418 71.7515 1.64756C71.2736 1.64756 70.906 1.28144 70.9428 0.80548C70.9428 0.36613 71.3104 0 71.7882 0C73.9569 0.0366125 76.1624 0.14645 78.3311 0.366125C78.7722 0.402738 79.1398 0.805475 79.0663 1.28144C78.9928 1.68418 78.6252 2.01369 78.2209 2.01369Z" fill="#F58220"/>
<path d="M91.785 4.7654C91.7115 4.7654 91.6012 4.76541 91.5277 4.72872C90.4984 4.39851 89.4325 4.10498 88.3665 3.81145C87.9254 3.70138 87.6681 3.22439 87.7784 2.7841C87.8886 2.34381 88.3665 2.08698 88.8076 2.19705C89.9103 2.49058 90.9763 2.78411 92.0423 3.11432C92.4834 3.26108 92.7407 3.70137 92.5937 4.14166C92.4834 4.54526 92.1526 4.7654 91.785 4.7654Z" fill="#F58220"/>
<defs>
<clipPath id="clip0_541_2861">
<rect width="74" height="74" fill="white" transform="translate(34 34)"/>
</clipPath>
</defs>
</svg>
